<?xml version="1.0"?><svg xmlns="http://www.w3.org/2000/svg" viewBox="0 0 250 250"><defs><style>
      .cls-1 {
        fill: #fff;
      }
    </style></defs><g id="BG"><circle cx="125" cy="125" r="122.38"/></g><g id="Layer_1" data-name="Layer 1"><path class="cls-1" d="M157.97,91.74c-4.59-3.59-8.13-8.78-10.39-15.89-.47-1.47-.88-3.01-1.24-4.65h-16.52v72.58l-.04-.04c.01.28.04.56.04.85,0,9.69-7.85,17.54-17.54,17.54-3.66,0-7.05-1.12-9.86-3.03-4.64-3.16-7.68-8.48-7.68-14.51,0-9.69,7.85-17.54,17.54-17.54,1.44,0,2.83.19,4.16.52l.14-12.39.05-4.37c-1.43-.18-2.88-.29-4.35-.29-18.81,0-34.07,15.25-34.07,34.07,0,10.59,4.83,20.05,12.41,26.3,5.89,4.85,13.43,7.77,21.65,7.77,17.33,0,31.92-12.36,34.07-29.11v-46.14c1.47,2.02,3.01,3.72,4.65,5.17.37.33.75.64,1.12.94,5.48,4.35,11.92,5.99,19.67,6.63v-18.51c-5.28-.96-9.93-2.86-13.82-5.9Z"/></g></svg>