<?xml version="1.0" encoding="UTF-8"?>
<svg version="1.1" xmlns="http://www.w3.org/2000/svg" width="500" height="500" viewBox="0 0 500 500">
	<defs>
		<clipPath id="roundClip">
			<!-- Slight inset radius to ensure clean circular edge with transparent corners -->
			<circle cx="250" cy="250" r="240" />
		</clipPath>
	</defs>
	<!-- Circular background to achieve rounded favicon appearance -->
	<circle cx="250" cy="250" r="240" fill="#FAF2DE" />
	<!-- Clip all artwork to the circular shape so corners are transparent -->
	<g clip-path="url(#roundClip)">
<path d="M0 0 C9.38484487 7.15453461 9.38484487 7.15453461 11 12 C11.58378418 11.97905273 12.16756836 11.95810547 12.76904297 11.93652344 C36.38708187 11.19977119 36.38708187 11.19977119 46.375 19.375 C53.6885426 26.33537354 57.01671746 34.31974837 57.4375 44.375 C57.05224261 55.30089959 52.853577 64.42979949 45 72 C38.64356166 76.77237355 31.07107005 81 23 81 C23.02618408 81.82725586 23.05236816 82.65451172 23.0793457 83.50683594 C23.18326831 87.25436418 23.24831489 91.0015895 23.3125 94.75 C23.35439453 96.05195313 23.39628906 97.35390625 23.43945312 98.6953125 C23.45556641 99.94570312 23.47167969 101.19609375 23.48828125 102.484375 C23.51446533 103.63647461 23.54064941 104.78857422 23.56762695 105.97558594 C23 109 23 109 20.92382812 111.29931641 C10.81180606 117.1811088 -3.28337713 116.50134352 -14.6875 116.375 C-15.79177841 116.36901794 -15.79177841 116.36901794 -16.91836548 116.36291504 C-29.12672249 116.28571691 -41.02431431 115.52260046 -53 113 C-53.72751465 112.85014648 -54.4550293 112.70029297 -55.20458984 112.54589844 C-59.5674867 111.61290211 -63.77314377 110.44659584 -68 109 C-68.82757813 108.74605469 -69.65515625 108.49210937 -70.5078125 108.23046875 C-72.99396761 107.08488747 -73.82029733 106.49259759 -75 104 C-75.30317304 98.99764482 -74.85907458 94.21610185 -74.25830078 89.25097656 C-73.86447554 85.81896457 -73.65866625 82.38488508 -73.4375 78.9375 C-73.29278552 76.95825121 -73.14740942 74.9790499 -73 73 C-73.72445313 72.88785156 -74.44890625 72.77570313 -75.1953125 72.66015625 C-84.68532077 70.42643564 -91.39416623 63.52772487 -96.5390625 55.640625 C-100.87296316 47.65075227 -101.46434345 38.87597652 -100 30 C-96.64424339 19.48372049 -90.05808158 11.12405749 -80.30859375 6.0078125 C-74.8718948 3.63443123 -70.17380691 2.67488953 -64.25 2.75 C-63.54552734 2.7495166 -62.84105469 2.7490332 -62.11523438 2.74853516 C-58.02763641 2.79630498 -54.42352205 3.26617855 -50.5 4.375 C-47.68366901 5.05091944 -46.55966909 5.29274998 -43.96875 3.9375 C-42.63311512 2.87747232 -41.32083526 1.7874686 -40.03125 0.671875 C-28.97396584 -8.42912042 -11.64791987 -7.14646706 0 0 Z " fill="#F7F1DC" transform="translate(349,128)"/>
<path d="M0 0 C5.88409024 4.99680679 10.45636039 10.95072807 11.96875 18.671875 C12.56597105 27.08192218 13.11190622 35.53108709 7.96875 42.671875 C3.17142565 47.70425756 -0.26893427 49.83874691 -7.28125 50.046875 C-14.5491091 49.9986903 -14.5491091 49.9986903 -17.71875 47.421875 C-20.84802774 43.70057174 -21.94205679 42.24762166 -22.21875 37.359375 C-20.66439538 32.53269487 -18.1657474 31.02878147 -14.0625 28.25 C-11.54038678 26.29051203 -11.16575671 24.69796905 -10.7578125 21.5859375 C-10.56430392 17.22455188 -10.54129811 15.31153441 -13.28125 11.734375 C-19.37836324 7.16154007 -24.50169096 6.79699422 -32.03125 7.671875 C-43.42631645 11.07881794 -50.95371392 20.36727098 -56.47265625 30.44921875 C-67.66693634 53.59528661 -72.49988801 82.44533461 -65.25390625 107.4296875 C-63.65869134 111.6598101 -61.66729434 115.0107023 -59.03125 118.671875 C-59.03125 119.331875 -59.03125 119.991875 -59.03125 120.671875 C-53.27968012 123.76887417 -47.61808997 125.64999597 -41.03125 124.671875 C-33.46096984 122.29549006 -29.14533395 117.55372597 -25.43359375 110.73828125 C-20.68540142 100.64691425 -18.80805526 90.2471958 -17.80712891 79.19775391 C-17.69570557 77.98804932 -17.69570557 77.98804932 -17.58203125 76.75390625 C-17.52313721 76.02018799 -17.46424316 75.28646973 -17.40356445 74.53051758 C-17.03125 72.671875 -17.03125 72.671875 -15.03125 70.671875 C-12.61694336 70.42895508 -12.61694336 70.42895508 -9.62109375 70.44140625 C-8.54923828 70.44333984 -7.47738281 70.44527344 -6.37304688 70.44726562 C-5.24962891 70.45951172 -4.12621094 70.47175781 -2.96875 70.484375 C-1.27782227 70.4853418 -1.27782227 70.4853418 0.44726562 70.48632812 C8.82861683 70.53174183 8.82861683 70.53174183 9.96875 71.671875 C10.10687946 73.9783158 10.15884921 76.23825761 10.15625 78.546875 C10.15544434 79.31789551 10.15463867 80.08891602 10.15380859 80.88330078 C10.01394631 95.49205353 8.90426556 110.09677219 7.96875 124.671875 C7.92536499 125.35445374 7.88197998 126.03703247 7.83728027 126.74029541 C7.28674622 135.39022527 6.68113129 144.03370099 5.96875 152.671875 C5.90220215 153.49187988 5.8356543 154.31188477 5.76708984 155.15673828 C4.16498919 173.74516183 -1.15482592 191.58645229 -15.03125 204.671875 C-24.76778431 212.40574423 -34.02899405 214.85549433 -46.28125 214.984375 C-47.18488281 215.01337891 -48.08851562 215.04238281 -49.01953125 215.07226562 C-58.39611121 215.15996026 -66.84728895 211.75418976 -73.625 205.109375 C-80.55102222 197.504331 -81.55332613 191.39809766 -81.3125 181.203125 C-80.73323258 173.93010067 -77.54340531 168.44326635 -72.03125 163.671875 C-64.1164524 158.27650246 -56.56733589 156.13463711 -47.03125 157.671875 C-43.08236901 159.16400942 -40.00626936 161.94128288 -38.03125 165.671875 C-37.59375 168.671875 -37.59375 168.671875 -38.03125 171.671875 C-40.18996253 174.48736564 -41.32074731 175.56339385 -44.87109375 176.10546875 C-45.89332031 176.10675781 -46.91554687 176.10804688 -47.96875 176.109375 C-53.13214346 176.28898525 -53.13214346 176.28898525 -57.21875 179.109375 C-60.12832191 183.22290771 -60.45504302 185.58635881 -60.03125 190.671875 C-58.23580014 194.33183049 -56.94987116 196.18051949 -53.34375 198.109375 C-47.1567154 199.16000352 -41.07154768 198.63019857 -35.66015625 195.15234375 C-26.27692846 186.62418228 -24.57221206 172.50914467 -22.84375 160.671875 C-22.6694043 159.49520264 -22.49505859 158.31853027 -22.31542969 157.10620117 C-20.98538206 147.5674692 -20.57901142 138.28194488 -21.03125 128.671875 C-21.43214844 129.17976562 -21.83304687 129.68765625 -22.24609375 130.2109375 C-29.16461536 138.58846707 -37.45083243 144.61092028 -48.46972656 145.97338867 C-50.97778809 146.10783787 -53.45735654 146.14024291 -55.96875 146.109375 C-56.84901855 146.10035156 -57.72928711 146.09132813 -58.63623047 146.08203125 C-70.11019137 145.77566181 -77.80544641 141.67610812 -86.03125 133.671875 C-91.69174978 127.13036358 -95.21766064 119.80345743 -98.03125 111.671875 C-98.35222656 110.76824219 -98.67320313 109.86460937 -99.00390625 108.93359375 C-106.332504 83.74366937 -100.17871258 53.23821922 -87.96875 30.609375 C-77.99117193 12.97078359 -61.76281865 -0.54737414 -42.21875 -6.265625 C-28.17798586 -9.28373318 -11.88232998 -8.69648788 0 0 Z " fill="#2B5331" transform="translate(139.03125,157.328125)"/>
<path d="M0 0 C2.11258119 2.11258119 1.16489125 6.84883828 1.17358398 9.77075195 C1.180271 10.69106201 1.18695801 11.61137207 1.19384766 12.55957031 C1.20793418 14.56539376 1.21981664 16.57123359 1.22979546 18.57708168 C1.24615307 21.74978681 1.26938923 24.92237088 1.29469299 28.09501648 C1.36560924 37.11821497 1.42559079 46.14146358 1.47680664 55.16479492 C1.50857906 60.67732575 1.54985362 66.18971918 1.59700203 71.7021389 C1.61303659 73.80607826 1.62535141 75.91004931 1.63390923 78.01403236 C1.64604791 80.9565184 1.6701928 83.89868098 1.69702148 86.84106445 C1.69761063 87.71343246 1.69819977 88.58580048 1.69880676 89.48460388 C1.70852509 90.28800201 1.71824341 91.09140015 1.72825623 91.91914368 C1.73248816 92.61472035 1.7367201 93.31029703 1.74108028 94.02695179 C2.04470568 96.34067109 2.86120893 97.97853805 4 100 C7.33200185 100.41771804 7.33200185 100.41771804 11 100 C15.43008673 96.2027828 17.04468273 90.35632125 19 85 C22.71599191 84.79913557 23.77208445 84.8480563 27 87 C26.68983347 95.2194131 23.57112742 102.09407938 18 108.1875 C11.12634116 114.43628076 4.93757084 115.82115106 -4.3203125 115.50390625 C-9.02231019 114.86000211 -11.27639749 113.50333143 -14.48046875 110.08984375 C-16.82371165 106.86713179 -18.45298135 103.6741693 -20 100 C-20.53367187 100.59167969 -21.06734375 101.18335938 -21.6171875 101.79296875 C-30.70382285 111.42983288 -40.31937967 115.80671178 -53.5 116.375 C-63.11337089 116.14706791 -69.29339515 111.50558944 -76 105 C-76.66 105.721875 -77.32 106.44375 -78 107.1875 C-83.01911679 112.22095713 -89.08917021 116.10029368 -96.3125 116.25 C-100.60232901 116.18047279 -103.38702249 115.46339376 -107 113 C-113.1990367 106.5191889 -114.28647946 101.55010566 -114.30859375 92.9375 C-114.33374515 91.15364244 -114.35914329 89.36978835 -114.38476562 87.5859375 C-114.4135308 84.78809442 -114.43756487 81.99031126 -114.45629883 79.19238281 C-114.47797144 76.4821156 -114.5173999 73.77253057 -114.55859375 71.0625 C-114.55870956 70.22904053 -114.55882538 69.39558105 -114.5589447 68.53686523 C-114.63695637 63.94981475 -114.85280617 60.61978708 -118 57 C-122.11005501 56.26180294 -122.11005501 56.26180294 -126 57 C-129.7303485 61.30424826 -131.10238551 65.1441258 -131.20532227 70.74682617 C-131.22526749 71.70759567 -131.24521271 72.66836517 -131.26576233 73.6582489 C-131.29083107 75.20993523 -131.29083107 75.20993523 -131.31640625 76.79296875 C-131.33718735 77.85413406 -131.35796844 78.91529938 -131.37937927 80.00862122 C-131.44481238 83.40151437 -131.50373093 86.7944855 -131.5625 90.1875 C-131.60569114 92.48633622 -131.64930562 94.78516453 -131.69335938 97.08398438 C-131.80048745 102.72257615 -131.90177268 108.36124643 -132 114 C-138.6 114 -145.2 114 -152 114 C-152 90.57 -152 67.14 -152 43 C-147.14621958 41.38207319 -144.60949823 40.72558041 -139.75 40.75 C-138.71359375 40.74484375 -137.6771875 40.7396875 -136.609375 40.734375 C-134 41 -134 41 -132 43 C-131.60235737 44.98821313 -131.26224651 46.98944339 -131 49 C-130.49210937 48.51789063 -129.98421875 48.03578125 -129.4609375 47.5390625 C-123.69466987 42.24791805 -119.21576794 39.41577515 -111.078125 39.6953125 C-105.13206902 40.56710266 -101.18728408 43.36498746 -97.5625 48.0625 C-94.99248073 51.71094697 -93.88713024 54.68345467 -93.81054688 59.1484375 C-93.79382935 59.97939941 -93.77711182 60.81036133 -93.7598877 61.66650391 C-93.74631226 62.56030762 -93.73273682 63.45411133 -93.71875 64.375 C-93.69113586 65.75631104 -93.69113586 65.75631104 -93.66296387 67.16552734 C-93.58428921 71.10828037 -93.51655595 75.05120498 -93.44775391 78.99414062 C-93.3960052 81.87117893 -93.33876339 84.74807211 -93.28125 87.625 C-93.26767456 88.51880371 -93.25409912 89.41260742 -93.2401123 90.33349609 C-93.22339478 91.16445801 -93.20667725 91.99541992 -93.18945312 92.8515625 C-93.17692505 93.58197754 -93.16439697 94.31239258 -93.15148926 95.06494141 C-93.06116377 97.2185428 -93.06116377 97.2185428 -92 100 C-87.57946467 100.41257059 -87.57946467 100.41257059 -83.8125 98.32202148 C-81.57873308 95.4603085 -81.57382168 94.18025469 -81.75 90.59765625 C-81.78407959 89.54843994 -81.81815918 88.49922363 -81.85327148 87.41821289 C-81.90169189 86.31082764 -81.9501123 85.20344238 -82 84.0625 C-82.29081301 69.94951548 -80.76289191 58.95107348 -71 48 C-63.7985992 41.30005071 -56.95504538 39.5096461 -47.1953125 39.6875 C-41.14423037 40.27929287 -37.05480741 42.52732925 -33.0625 47.0625 C-28.9673219 52.89502638 -29.4356861 59.10555622 -30 66 C-31.70021844 72.61677366 -36.34541788 77.38582534 -42 81 C-48.01147894 83.67439811 -53.39324008 85.24505786 -60 85 C-57.9244306 93.21738718 -57.9244306 93.21738718 -53 100 C-48.33629172 102.33185414 -41.6093031 101.68850519 -36.67578125 100.38671875 C-29.19611086 97.05099148 -24.1420834 90.38772452 -21 83 C-20.72291285 80.28635979 -20.5919196 77.8061832 -20.61523438 75.09863281 C-20.6098616 74.33043716 -20.60448883 73.56224152 -20.59895325 72.77076721 C-20.58921185 71.11262773 -20.58622005 69.45443749 -20.58930969 67.79627228 C-20.5938002 65.17381016 -20.57975597 62.55201827 -20.56091309 59.92962646 C-20.51796472 53.42278351 -20.50685196 46.91595652 -20.49468994 40.40899658 C-20.48318368 34.89868595 -20.45970427 29.38868367 -20.41999817 23.87850189 C-20.40638546 21.29136896 -20.41060477 18.70464761 -20.41540527 16.11749268 C-20.40607043 14.53958603 -20.39590307 12.96168401 -20.38476562 11.38378906 C-20.39398796 10.30065178 -20.39398796 10.30065178 -20.40339661 9.19563293 C-20.37854004 7.19927979 -20.37854004 7.19927979 -20 4 C-14.44704395 0.2980293 -6.60378438 -0.5213514 0 0 Z " fill="#E59412" transform="translate(434,216)"/>
<path d="M0 0 C8.19590028 4.96214371 12.68739735 13.08413509 15.375 22.0625 C15.8724492 24.42327585 16.16553233 26.65362184 16.375 29.0625 C26.29441311 26.65153154 32.22217683 20.94580469 38.375 13.0625 C43.125 13.8125 43.125 13.8125 45.375 16.0625 C45.375 23.04684791 43.14756289 27.05933008 38.375 32.0625 C32.41727236 37.64502724 24.8401029 43.0625 16.375 43.0625 C16.42140625 43.83851563 16.4678125 44.61453125 16.515625 45.4140625 C17.01906886 60.48141813 12.36201149 75.34081398 1.9921875 86.5703125 C-5.92421945 93.87482326 -15.8863734 96.81661334 -26.54296875 96.4609375 C-35.83387439 95.25983183 -42.86128186 91.23469896 -48.7109375 83.94921875 C-57.54920759 70.61966447 -57.19253456 54.66943529 -55.11328125 39.2734375 C-54.46375033 36.42751591 -53.64978357 33.79387879 -52.625 31.0625 C-52.2846875 30.07636719 -51.944375 29.09023437 -51.59375 28.07421875 C-47.58253027 17.40925277 -41.53991315 7.99238075 -31.625 2.0625 C-30.9959375 1.65128906 -30.366875 1.24007812 -29.71875 0.81640625 C-21.30281126 -3.86091355 -8.73797717 -3.85380923 0 0 Z " fill="#2B5331" transform="translate(214.625,206.9375)"/>
<path d="M0 0 C9.38484487 7.15453461 9.38484487 7.15453461 11 12 C11.58378418 11.97905273 12.16756836 11.95810547 12.76904297 11.93652344 C36.38708187 11.19977119 36.38708187 11.19977119 46.375 19.375 C53.6885426 26.33537354 57.01671746 34.31974837 57.4375 44.375 C57.05224261 55.30089959 52.853577 64.42979949 45 72 C38.64356166 76.77237355 31.07107005 81 23 81 C23.02618408 81.82725586 23.05236816 82.65451172 23.0793457 83.50683594 C23.18326831 87.25436418 23.24831489 91.0015895 23.3125 94.75 C23.35439453 96.05195313 23.39628906 97.35390625 23.43945312 98.6953125 C23.45556641 99.94570312 23.47167969 101.19609375 23.48828125 102.484375 C23.51446533 103.63647461 23.54064941 104.78857422 23.56762695 105.97558594 C23 109 23 109 20.92382812 111.29931641 C10.81180606 117.1811088 -3.28337713 116.50134352 -14.6875 116.375 C-15.79177841 116.36901794 -15.79177841 116.36901794 -16.91836548 116.36291504 C-29.12672249 116.28571691 -41.02431431 115.52260046 -53 113 C-53.72751465 112.85014648 -54.4550293 112.70029297 -55.20458984 112.54589844 C-59.5674867 111.61290211 -63.77314377 110.44659584 -68 109 C-68.82757813 108.74605469 -69.65515625 108.49210937 -70.5078125 108.23046875 C-72.99396761 107.08488747 -73.82029733 106.49259759 -75 104 C-75.30317304 98.99764482 -74.85907458 94.21610185 -74.25830078 89.25097656 C-73.86447554 85.81896457 -73.65866625 82.38488508 -73.4375 78.9375 C-73.29278552 76.95825121 -73.14740942 74.9790499 -73 73 C-73.72445313 72.88785156 -74.44890625 72.77570313 -75.1953125 72.66015625 C-84.68532077 70.42643564 -91.39416623 63.52772487 -96.5390625 55.640625 C-100.87296316 47.65075227 -101.46434345 38.87597652 -100 30 C-96.64424339 19.48372049 -90.05808158 11.12405749 -80.30859375 6.0078125 C-74.8718948 3.63443123 -70.17380691 2.67488953 -64.25 2.75 C-63.54552734 2.7495166 -62.84105469 2.7490332 -62.11523438 2.74853516 C-58.02763641 2.79630498 -54.42352205 3.26617855 -50.5 4.375 C-47.68366901 5.05091944 -46.55966909 5.29274998 -43.96875 3.9375 C-42.63311512 2.87747232 -41.32083526 1.7874686 -40.03125 0.671875 C-28.97396584 -8.42912042 -11.64791987 -7.14646706 0 0 Z M-48 16 C-48.556875 16.78375 -49.11375 17.5675 -49.6875 18.375 C-51.32839122 20.40657961 -52.50322869 20.48132246 -55 21 C-54.69964844 20.45730469 -54.39929688 19.91460937 -54.08984375 19.35546875 C-53.70957031 18.64003906 -53.32929688 17.92460937 -52.9375 17.1875 C-52.36322266 16.12595703 -52.36322266 16.12595703 -51.77734375 15.04296875 C-50.69736489 12.85302199 -50.69736489 12.85302199 -52 10 C-61.99103794 7.77363611 -70.32509471 8.14645849 -79.3359375 13.234375 C-86.09140851 17.71160799 -91.02056451 22.97807721 -93 31 C-94.32359831 41.27802864 -93.01351821 49.46001463 -87 58 C-83.33037005 62.04843046 -79.04222209 65.76952863 -73.421875 66.1953125 C-72.54015625 66.17210937 -71.6584375 66.14890625 -70.75 66.125 C-69.85796875 66.10695313 -68.9659375 66.08890625 -68.046875 66.0703125 C-67.37140625 66.04710937 -66.6959375 66.02390625 -66 66 C-66.37511719 65.55011719 -66.75023437 65.10023438 -67.13671875 64.63671875 C-71.49356948 59.16047564 -74.32230245 53.44543127 -77 47 C-73.38439563 50.5060406 -70.08251132 54.1776693 -66.84375 58.03515625 C-62.28725713 62.92308553 -62.28725713 62.92308553 -56.01171875 64.390625 C-54.569791 64.36428842 -53.1281136 64.3169454 -51.6875 64.25 C-50.94693359 64.23195312 -50.20636719 64.21390625 -49.44335938 64.1953125 C-47.6283429 64.14847337 -45.81399834 64.07673789 -44 64 C-44.53787121 61.15073631 -45.15880144 58.51425443 -46.0625 55.75 C-47.15380346 51.38478614 -47.18233769 47.46727338 -47 43 C-46.69707031 43.94101563 -46.39414062 44.88203125 -46.08203125 45.8515625 C-43.1749203 55.45358511 -43.1749203 55.45358511 -37 63 C-34.51213695 63.70121652 -34.51213695 63.70121652 -31.82421875 64.140625 C-30.47009888 64.3886084 -30.47009888 64.3886084 -29.08862305 64.64160156 C-28.39937744 64.75987305 -27.71013184 64.87814453 -27 65 C-27.76030518 65.06993164 -28.52061035 65.13986328 -29.30395508 65.21191406 C-32.80840735 65.54290933 -36.310268 65.89631285 -39.8125 66.25 C-41.6059082 66.41435547 -41.6059082 66.41435547 -43.43554688 66.58203125 C-51.1475694 67.38055129 -57.86244931 68.95605799 -65 72 C-65.50579714 75.04080421 -66.00480759 78.08246646 -66.5 81.125 C-66.64308594 81.9809375 -66.78617187 82.836875 -66.93359375 83.71875 C-67.65695734 88.19671505 -68.17918816 92.44563435 -68 97 C-65.93728361 96.6889315 -63.87483534 96.37608484 -61.8125 96.0625 C-60.08966797 95.80146484 -60.08966797 95.80146484 -58.33203125 95.53515625 C-56.4431302 95.23178058 -54.55692125 94.90008595 -52.69067383 94.47924805 C-30.17396131 90.46869486 -5.37553441 94.87482186 16 102 C16.33 93.42 16.66 84.84 17 76 C11.57778114 73.28889057 7.65506299 71.41376575 2 70 C2 69.34 2 68.68 2 68 C2.6290625 68.05800781 3.258125 68.11601562 3.90625 68.17578125 C15.73389588 68.79922644 22.35197421 61.29677176 31 54 C29.03226249 57.52476345 26.96373936 60.2614954 24.0625 63.0625 C23.05896484 64.03896484 23.05896484 64.03896484 22.03515625 65.03515625 C21.36355469 65.68355469 20.69195312 66.33195312 20 67 C18.66435386 68.33101651 17.33035383 69.66369381 16 71 C19.04552112 73.45606542 21.35033376 74.28021156 25.1875 74.0625 C33.03119295 72.84672759 39.95350094 68.13933684 44.75 61.8984375 C49.63563025 54.47838655 51.10289351 47.88119511 50 39 C48.21672692 30.81583944 43.87975142 25.64216237 37 21 C30.32032873 17.419021 23.41269656 17.66134889 16 18 C16.495 20.97 16.495 20.97 17 24 C11.74465128 20.78496314 8.13286707 17.06535532 4.14453125 12.421875 C-1.52885204 5.98445442 -8.25818813 1.65016424 -16.86328125 0.67578125 C-29.96921991 0.19284323 -39.38149078 6.54602305 -48 16 Z " fill="#335235" transform="translate(349,128)"/>
<path d="M0 0 C4.23415179 3.15160576 7.2354721 7.43297879 8.89453125 12.41015625 C9.00256928 13.7901875 9.06024515 15.17454357 9.08398438 16.55859375 C9.1007019 17.38955566 9.11741943 18.22051758 9.13464355 19.07666016 C9.14821899 19.97046387 9.16179443 20.86426758 9.17578125 21.78515625 C9.19419067 22.70603027 9.2126001 23.6269043 9.23156738 24.57568359 C9.31024204 28.51843662 9.3779753 32.46136123 9.44677734 36.40429688 C9.49852605 39.28133518 9.55576786 42.15822836 9.61328125 45.03515625 C9.62685669 45.92895996 9.64043213 46.82276367 9.65441895 47.74365234 C9.67113647 48.57461426 9.687854 49.40557617 9.70507812 50.26171875 C9.7176062 50.99213379 9.73013428 51.72254883 9.74304199 52.47509766 C9.83336748 54.62869905 9.83336748 54.62869905 10.89453125 57.41015625 C15.31203896 57.8220773 15.31203896 57.8220773 19.07983398 55.73876953 C21.32730608 52.85482108 21.32992385 51.51466649 21.1796875 47.90234375 C21.14004883 46.29746094 21.14004883 46.29746094 21.09960938 44.66015625 C21.05255859 43.54640625 21.00550781 42.43265625 20.95703125 41.28515625 C20.6300853 33.02855105 20.94050412 26.19336602 23.89453125 18.41015625 C24.22453125 18.41015625 24.55453125 18.41015625 24.89453125 18.41015625 C24.89453125 21.38015625 24.89453125 24.35015625 24.89453125 27.41015625 C24.23453125 27.41015625 23.57453125 27.41015625 22.89453125 27.41015625 C22.86751717 29.51425264 22.84812902 31.61844803 22.83203125 33.72265625 C22.82042969 34.89441406 22.80882812 36.06617188 22.796875 37.2734375 C22.74553227 40.4407482 22.74553227 40.4407482 23.89453125 43.41015625 C23.96308075 45.30486441 23.97933497 47.20183965 23.95703125 49.09765625 C23.94800781 50.09152344 23.93898438 51.08539063 23.9296875 52.109375 C23.91808594 52.86863281 23.90648437 53.62789063 23.89453125 54.41015625 C23.23453125 54.41015625 22.57453125 54.41015625 21.89453125 54.41015625 C21.89453125 55.73015625 21.89453125 57.05015625 21.89453125 58.41015625 C22.55453125 58.08015625 23.21453125 57.75015625 23.89453125 57.41015625 C23.89453125 58.07015625 23.89453125 58.73015625 23.89453125 59.41015625 C24.67828125 59.34828125 25.46203125 59.28640625 26.26953125 59.22265625 C27.56890625 59.31546875 27.56890625 59.31546875 28.89453125 59.41015625 C29.55453125 60.40015625 30.21453125 61.39015625 30.89453125 62.41015625 C30.39953125 63.89515625 30.39953125 63.89515625 29.89453125 65.41015625 C28.57453125 64.42015625 27.25453125 63.43015625 25.89453125 62.41015625 C25.56582031 62.8690625 25.23710937 63.32796875 24.8984375 63.80078125 C20.49330573 69.48328185 15.73590396 72.70711863 8.52734375 73.75390625 C3.60746004 73.95268943 0.04251637 73.23832792 -4.10546875 70.41015625 C-10.30450545 63.92934515 -11.39194821 58.96026191 -11.4140625 50.34765625 C-11.4392139 48.56379869 -11.46461204 46.7799446 -11.49023438 44.99609375 C-11.51899955 42.19825067 -11.54303362 39.40046751 -11.56176758 36.60253906 C-11.58344019 33.89227185 -11.62286865 31.18268682 -11.6640625 28.47265625 C-11.66417831 27.63919678 -11.66429413 26.8057373 -11.66441345 25.94702148 C-11.74242512 21.359971 -11.95827492 18.02994333 -15.10546875 14.41015625 C-19.21552376 13.67195919 -19.21552376 13.67195919 -23.10546875 14.41015625 C-26.83581725 18.71440451 -28.20785426 22.55428205 -28.31079102 28.15698242 C-28.33073624 29.11775192 -28.35068146 30.07852142 -28.37123108 31.06840515 C-28.39629982 32.62009148 -28.39629982 32.62009148 -28.421875 34.203125 C-28.4426561 35.26429031 -28.46343719 36.32545563 -28.48484802 37.41877747 C-28.55028113 40.81167062 -28.60919968 44.20464175 -28.66796875 47.59765625 C-28.71115989 49.89649247 -28.75477437 52.19532078 -28.79882812 54.49414062 C-28.9059562 60.1327324 -29.00724143 65.77140268 -29.10546875 71.41015625 C-35.70546875 71.41015625 -42.30546875 71.41015625 -49.10546875 71.41015625 C-49.10546875 47.98015625 -49.10546875 24.55015625 -49.10546875 0.41015625 C-44.25168833 -1.20777056 -41.71496698 -1.86426334 -36.85546875 -1.83984375 C-35.8190625 -1.845 -34.78265625 -1.85015625 -33.71484375 -1.85546875 C-31.10546875 -1.58984375 -31.10546875 -1.58984375 -29.10546875 0.41015625 C-28.70782612 2.39836938 -28.36771526 4.39959964 -28.10546875 6.41015625 C-27.59757812 5.92804688 -27.0896875 5.4459375 -26.56640625 4.94921875 C-18.6026621 -2.35833675 -10.00392953 -5.50512099 0 0 Z " fill="#E59312" transform="translate(331.10546875,258.58984375)"/>
<path d="M0 0 C2.11258119 2.11258119 1.16489125 6.84883828 1.17358398 9.77075195 C1.180271 10.69106201 1.18695801 11.61137207 1.19384766 12.55957031 C1.20793418 14.56539376 1.21981664 16.57123359 1.22979546 18.57708168 C1.24615307 21.74978681 1.26938923 24.92237088 1.29469299 28.09501648 C1.36560924 37.11821497 1.42559079 46.14146358 1.47680664 55.16479492 C1.50857906 60.67732575 1.54985362 66.18971918 1.59700203 71.7021389 C1.61303659 73.80607826 1.62535141 75.91004931 1.63390923 78.01403236 C1.64604791 80.9565184 1.6701928 83.89868098 1.69702148 86.84106445 C1.69761063 87.71343246 1.69819977 88.58580048 1.69880676 89.48460388 C1.70852509 90.28800201 1.71824341 91.09140015 1.72825623 91.91914368 C1.73248816 92.61472035 1.7367201 93.31029703 1.74108028 94.02695179 C2.04470568 96.34067109 2.86120893 97.97853805 4 100 C7.33200185 100.41771804 7.33200185 100.41771804 11 100 C15.43008673 96.2027828 17.04468273 90.35632125 19 85 C22.71599191 84.79913557 23.77208445 84.8480563 27 87 C26.68983347 95.2194131 23.57112742 102.09407938 18 108.1875 C11.12851156 114.43430767 4.93987446 115.8253984 -4.31640625 115.5 C-9.00769083 114.86321906 -11.33563994 113.56295154 -14.546875 110.15625 C-16.89265713 106.675412 -18.11183691 103.07999917 -19 99 C-22.96 98.505 -22.96 98.505 -27 98 C-25.25 93.125 -25.25 93.125 -23 92 C-20.42326089 84.00237986 -20.70449246 75.79230091 -20.69503975 67.47908211 C-20.69134815 64.86907849 -20.67455165 62.25944537 -20.65428162 59.64952087 C-20.59909598 52.23606215 -20.56804592 44.82255324 -20.54370117 37.40893555 C-20.52786816 32.85971472 -20.49771328 28.31076638 -20.45893669 23.76168633 C-20.4472684 22.03010372 -20.44135618 20.29847258 -20.44125557 18.56685066 C-20.44106448 16.15633506 -20.42287571 13.74657968 -20.40063477 11.33618164 C-20.40750053 10.26011406 -20.40750053 10.26011406 -20.414505 9.16230774 C-20.38526917 7.17909241 -20.38526917 7.17909241 -20 4 C-14.44704395 0.2980293 -6.60378438 -0.5213514 0 0 Z " fill="#E7930E" transform="translate(434,216)"/>
<path d="M0 0 C4.26943529 2.28719748 5.96522127 3.75598457 8.5 7.875 C9.125 11.4375 9.125 11.4375 8.5 14.875 C6.13249279 18.05422397 4.77672585 19.66716091 0.8125 20.3125 C-1.5 19.875 -1.5 19.875 -3.5 17.875 C-3.5 15.54166667 -3.5 13.20833333 -3.5 10.875 C-5.44332332 8.49505632 -5.44332332 8.49505632 -9 8.625 C-12.55667668 8.49505632 -12.55667668 8.49505632 -14.5 10.875 C-15.22813053 16.21462385 -13.63704844 18.65164255 -10.5 22.875 C-8.76357609 24.6192929 -6.96925247 26.30763542 -5.125 27.9375 C-4.155625 28.80246094 -3.18625 29.66742188 -2.1875 30.55859375 C-0.20003101 32.27163025 1.79676365 33.90343822 3.875 35.5 C8.41715386 39.60956778 11.06180678 43.05145422 12.01953125 49.22265625 C12.33240485 56.02583809 12.03281967 61.10496638 7.33984375 66.26171875 C-0.74137662 73.34779946 -8.74085127 75.31222764 -19.41015625 75.12890625 C-26.40277975 74.55429117 -32.65716089 71.00212302 -37.375 65.8125 C-39.1622182 61.14587471 -39.35563708 56.7914065 -38.5 51.875 C-37.01200231 48.80930264 -35.34156426 46.76523093 -32.5 44.875 C-28.875 44.1875 -28.875 44.1875 -25.5 44.875 C-23 46.625 -23 46.625 -21.5 48.875 C-21.5625 51 -21.5625 51 -22.5 52.875 C-23.49 53.535 -24.48 54.195 -25.5 54.875 C-26 57.875 -26 57.875 -25.5 60.875 C-21.77226177 63.36015882 -18.8138329 63.38695293 -14.5 62.875 C-11.4254644 62.0986068 -11.4254644 62.0986068 -9.5 59.875 C-8.65657847 55.72817747 -8.50631737 53.46550749 -10.76171875 49.85546875 C-13.85742512 46.19690668 -17.34217053 43.14310767 -21 40.0625 C-26.59833467 35.14595223 -31.58090844 29.49563837 -33.0703125 22.0078125 C-33.32152341 15.96200321 -32.29104955 10.68469721 -28.5 5.875 C-20.44189932 -1.55077487 -10.60920029 -3.44849723 0 0 Z " fill="#E59312" transform="translate(262.5,257.125)"/>
<path d="M0 0 C0.66 0 1.32 0 2 0 C2.495 1.485 2.495 1.485 3 3 C5.64 2.67 8.28 2.34 11 2 C10.67 2.66 10.34 3.32 10 4 C8.68 4 7.36 4 6 4 C6.02618408 4.82725586 6.05236816 5.65451172 6.0793457 6.50683594 C6.18326831 10.25436418 6.24831489 14.0015895 6.3125 17.75 C6.35439453 19.05195313 6.39628906 20.35390625 6.43945312 21.6953125 C6.45556641 22.94570312 6.47167969 24.19609375 6.48828125 25.484375 C6.51446533 26.63647461 6.54064941 27.78857422 6.56762695 28.97558594 C6 32 6 32 3.92382812 34.29931641 C-6.18912678 40.1816514 -20.2826796 39.49998922 -31.6875 39.375 C-32.42169159 39.3713443 -33.15588318 39.3676886 -33.912323 39.36392212 C-49.36837739 39.27404794 -64.35975561 38.28189428 -79 33 C-78.67 31.35 -78.34 29.7 -78 28 C-78.99 27.67 -79.98 27.34 -81 27 C-81 26.34 -81 25.68 -81 25 C-71.48101974 22.02531867 -62.42143539 21.8666326 -52.5 21.9375 C-50.69402344 21.94426758 -50.69402344 21.94426758 -48.8515625 21.95117188 C-45.90098927 21.9628805 -42.95052141 21.97928005 -40 22 C-39.67 20.68 -39.34 19.36 -39 18 C-32.43145505 15.89806562 -26.05502042 17.20544049 -19.5625 18.8125 C-18.85029297 18.97814453 -18.13808594 19.14378906 -17.40429688 19.31445312 C-11.74645797 20.67623996 -6.22173849 22.38913075 -1 25 C-1.01160156 23.94941406 -1.02320313 22.89882812 -1.03515625 21.81640625 C-1.09119946 14.46073519 -1.04277143 7.29940004 0 0 Z " fill="#335234" transform="translate(366,205)"/>
<path d="M0 0 C2.4375 1.3125 2.4375 1.3125 4 3 C4 3.99 4 4.98 4 6 C3.236875 6.45375 2.47375 6.9075 1.6875 7.375 C-1.51014739 9.30846121 -2.54974648 10.56518904 -4 14 C-4.53204782 18.78843042 -4.49783872 20.98517492 -2.375 25.3125 C0.21437853 28.24258623 2.49530694 29.36287626 6 31 C5.64621529 42.9579233 4.60862182 54.61849096 -4.140625 63.5546875 C-7.16546143 65.9059259 -9.21094903 66.34445918 -13 66 C-17.23935695 63.28041253 -19.68912984 60.8859706 -21 56 C-23.60354114 43.52228803 -23.21672348 29.01127295 -19 17 C-18.73316406 16.11054688 -18.46632812 15.22109375 -18.19140625 14.3046875 C-15.38469553 5.94692668 -9.74557205 -1.87414847 0 0 Z " fill="#F5EFDA" transform="translate(207,220)"/>
<path d="M0 0 C1.59521484 -0.02513672 1.59521484 -0.02513672 3.22265625 -0.05078125 C4.11855469 0.06910156 5.01445312 0.18898438 5.9375 0.3125 C8.24422095 3.77258142 8.41884006 6.23731479 8.9375 10.3125 C9.77083333 12.47916667 9.77083333 12.47916667 11.9375 13.3125 C11.72891357 14.06354004 11.52032715 14.81458008 11.30541992 15.58837891 C8.49097331 26.93445518 8.38393119 38.05572053 8.25 49.6875 C8.21675235 51.69533372 8.1822561 53.70314717 8.14648438 55.7109375 C8.0624455 60.57801135 7.9952408 65.44504606 7.9375 70.3125 C2.3275 70.3125 -3.2825 70.3125 -9.0625 70.3125 C-9.13019997 61.48095205 -9.18527196 52.64957563 -9.21793652 43.81782722 C-9.23361161 39.71715807 -9.2548831 35.6166752 -9.28881836 31.51611328 C-9.32134669 27.56093381 -9.33933912 23.60593383 -9.34713173 19.65063095 C-9.35268704 18.13948616 -9.36353491 16.62835151 -9.37969017 15.11728287 C-9.40137859 13.00521648 -9.40447066 10.89389758 -9.40307617 8.78173828 C-9.40973801 7.57816681 -9.41639984 6.37459534 -9.42326355 5.134552 C-9.24468559 3.73763626 -9.24468559 3.73763626 -9.0625 2.3125 C-5.60395992 0.00680661 -4.08312492 0.01488381 0 0 Z " fill="#E6920D" transform="translate(293.0625,258.6875)"/>
<path d="M0 0 C3.625 -0.1875 3.625 -0.1875 7 0 C7 0.33 7 0.66 7 1 C5.35 1.33 3.7 1.66 2 2 C1.67 25.43 1.34 48.86 1 73 C7.6 73 14.2 73 21 73 C21 57.16 21 41.32 21 25 C21.33 25 21.66 25 22 25 C22.02526838 31.96003447 22.04283222 38.9200572 22.05493164 45.88012695 C22.05997341 48.24992312 22.06680665 50.61971615 22.07543945 52.98950195 C22.0875119 56.38754039 22.09322971 59.78553785 22.09765625 63.18359375 C22.10281754 64.25024765 22.10797882 65.31690155 22.11329651 66.4158783 C22.11337204 67.39681961 22.11344757 68.37776093 22.11352539 69.38842773 C22.115746 70.25668686 22.11796661 71.12494598 22.12025452 72.01951599 C22 74 22 74 21 75 C19.45044441 75.09899523 17.89646327 75.13079524 16.34375 75.1328125 C14.93416016 75.13474609 14.93416016 75.13474609 13.49609375 75.13671875 C12.01302734 75.13091797 12.01302734 75.13091797 10.5 75.125 C9.51128906 75.12886719 8.52257812 75.13273437 7.50390625 75.13671875 C6.56417969 75.13542969 5.62445313 75.13414062 4.65625 75.1328125 C3.78806641 75.13168457 2.91988281 75.13055664 2.02539062 75.12939453 C0 75 0 75 -1 74 C-1.15686249 72.44051458 -1.25076639 70.87457332 -1.31640625 69.30859375 C-1.35830078 68.36435547 -1.40019531 67.42011719 -1.44335938 66.44726562 C-1.48267578 65.45404297 -1.52199219 64.46082031 -1.5625 63.4375 C-1.60568359 62.44041016 -1.64886719 61.44332031 -1.69335938 60.41601562 C-1.79980298 57.9441585 -1.90181928 55.4721969 -2 53 C-3.485 52.505 -3.485 52.505 -5 52 C-5.09087891 53.04800781 -5.09087891 53.04800781 -5.18359375 54.1171875 C-5.26738281 55.02726562 -5.35117187 55.93734375 -5.4375 56.875 C-5.51871094 57.77992188 -5.59992188 58.68484375 -5.68359375 59.6171875 C-6 62 -6 62 -7 64 C-7.66 64 -8.32 64 -9 64 C-9 64.66 -9 65.32 -9 66 C-9.66 65.67 -10.32 65.34 -11 65 C-10.27296875 63.97326172 -10.27296875 63.97326172 -9.53125 62.92578125 C-6.74664886 57.60520407 -7.28174509 51.84488166 -8 46 C-9.77964433 41.42474579 -11.92909439 38.71393708 -16 36 C-16 35.34 -16 34.68 -16 34 C-16.80050781 33.67128906 -16.80050781 33.67128906 -17.6171875 33.3359375 C-20.84400481 31.52680386 -23.42536189 29.12101577 -26.125 26.625 C-26.66253906 26.14289063 -27.20007813 25.66078125 -27.75390625 25.1640625 C-31.64053274 21.59728308 -33.77557836 19.19933212 -34.3125 13.9375 C-34 11 -34 11 -32.9375 9.125 C-29.8930714 7.35726726 -27.4368988 7.63176084 -24 8 C-22.0625 9.0625 -22.0625 9.0625 -21 11 C-20.875 14.625 -20.875 14.625 -21 18 C-20.67 18.33 -20.34 18.66 -20 19 C-16.51944126 18.82432642 -16.51944126 18.82432642 -13 18 C-10.86413322 14.79619983 -10.76867825 13.98060033 -10.875 10.3125 C-10.90207031 9.10013672 -10.90207031 9.10013672 -10.9296875 7.86328125 C-10.95289063 7.24839844 -10.97609375 6.63351562 -11 6 C-10.34 6 -9.68 6 -9 6 C-7.39274365 9.21451269 -7.94251815 12.43612536 -8 16 C-7.34 16 -6.68 16 -6 16 C-6.04640625 15.39671875 -6.0928125 14.7934375 -6.140625 14.171875 C-6.43938161 7.55655004 -6.43938161 7.55655004 -4.125 4.625 C-3.42375 4.08875 -2.7225 3.5525 -2 3 C-1.34 2.01 -0.68 1.02 0 0 Z " fill="#F9F0D6" transform="translate(281,257)"/>
<path d="M0 0 C4.57401341 2.71733144 7.80000335 6.27501006 9.5 11.375 C10.1401005 19.04571255 10.42030704 26.10779327 5.5 32.375 C1.38395065 36.78880611 -2.48464981 40.02154621 -8.5 41.375 C-8.995 39.89 -8.995 39.89 -9.5 38.375 C-7.85 38.375 -6.2 38.375 -4.5 38.375 C-4.5 37.385 -4.5 36.395 -4.5 35.375 C-5.985 34.88 -5.985 34.88 -7.5 34.375 C-7.5 33.385 -7.5 32.395 -7.5 31.375 C-12.18738665 32.28223613 -16.84193744 33.3297267 -21.5 34.375 C-21.55420701 31.81221301 -21.59377007 29.25058517 -21.625 26.6875 C-21.64175781 25.96626953 -21.65851563 25.24503906 -21.67578125 24.50195312 C-21.7140497 20.31155836 -21.37887085 17.13274171 -19.5 13.375 C-19.12875 12.611875 -18.7575 11.84875 -18.375 11.0625 C-18.08625 10.505625 -17.7975 9.94875 -17.5 9.375 C-18.16 9.375 -18.82 9.375 -19.5 9.375 C-19.768125 8.240625 -20.03625 7.10625 -20.3125 5.9375 C-20.704375 4.761875 -21.09625 3.58625 -21.5 2.375 C-22.49 2.045 -23.48 1.715 -24.5 1.375 C-17.13419843 -2.73614506 -7.80668693 -3.540414 0 0 Z " fill="#E6920F" transform="translate(394.5,257.625)"/>
<path d="M0 0 C1 1 1 1 1.0546875 2.92578125 C0.5733543 9.31914177 0.5733543 9.31914177 -2 12.375 C-13.96205111 18.85444435 -25.94780255 17.4451356 -39 15.6875 C-39.8962207 15.57003418 -40.79244141 15.45256836 -41.71582031 15.33154297 C-46.67205963 14.60180709 -50.6122942 13.57633383 -55 11 C-54.45276317 7.62537285 -53.9451 5.91765 -52 3 C-49.52990002 2.69749961 -47.2971866 2.58296255 -44.82421875 2.59375 C-44.10321487 2.58291382 -43.382211 2.57207764 -42.63935852 2.56091309 C-40.32198359 2.52658738 -38.00509555 2.5110786 -35.6875 2.5 C-26.00078726 2.45250093 -17.1076493 2.25421663 -7.71020508 -0.45898438 C-4.76161088 -1.04758763 -2.86637461 -0.84516015 0 0 Z " fill="#E39519" transform="translate(210,315)"/>
<path d="M0 0 C2.11258119 2.11258119 1.16489125 6.84883828 1.17358398 9.77075195 C1.180271 10.69106201 1.18695801 11.61137207 1.19384766 12.55957031 C1.20793418 14.56539376 1.21981664 16.57123359 1.22979546 18.57708168 C1.24615307 21.74978681 1.26938923 24.92237088 1.29469299 28.09501648 C1.36560924 37.11821497 1.42559079 46.14146358 1.47680664 55.16479492 C1.50857906 60.67732575 1.54985362 66.18971918 1.59700203 71.7021389 C1.61303659 73.80607826 1.62535141 75.91004931 1.63390923 78.01403236 C1.64604791 80.9565184 1.6701928 83.89868098 1.69702148 86.84106445 C1.69761063 87.71343246 1.69819977 88.58580048 1.69880676 89.48460388 C1.70852509 90.28800201 1.71824341 91.09140015 1.72825623 91.91914368 C1.73248816 92.61472035 1.7367201 93.31029703 1.74108028 94.02695179 C2.04470568 96.34067109 2.86120893 97.97853805 4 100 C7.33200185 100.41771804 7.33200185 100.41771804 11 100 C15.43008673 96.2027828 17.04468273 90.35632125 19 85 C22.71599191 84.79913557 23.77208445 84.8480563 27 87 C26.72208931 94.36463334 24.05583155 99.87859906 20 106 C19.01 106.495 19.01 106.495 18 107 C17.95758277 104.66705225 17.95907063 102.33297433 18 100 C18.33 99.67 18.66 99.34 19 99 C16.52733235 99.34444881 16.52733235 99.34444881 14 100 C13.67 100.66 13.34 101.32 13 102 C11.4201072 102.16281338 9.83534259 102.27877979 8.25 102.375 C6.92742187 102.47941406 6.92742187 102.47941406 5.578125 102.5859375 C3 102 3 102 0.86724854 99.53952026 C-1.6994911 95.43568881 -1.53415552 91.50248303 -1.45410156 86.78173828 C-1.45468567 85.87378006 -1.45526978 84.96582184 -1.45587158 84.03034973 C-1.4530953 81.04327539 -1.4220247 78.05721151 -1.390625 75.0703125 C-1.383161 72.99381048 -1.37746882 70.91730139 -1.37347412 68.84078979 C-1.35823044 63.3859092 -1.31895921 57.93145729 -1.2746582 52.47674561 C-1.23367838 46.90643105 -1.21545729 41.33604697 -1.1953125 35.765625 C-1.152464 24.84356206 -1.08422774 13.92181674 -1 3 C-1.99 3.495 -1.99 3.495 -3 4 C-7.62 4 -12.24 4 -17 4 C-17.33 30.4 -17.66 56.8 -18 84 C-18.66 84 -19.32 84 -20 84 C-20 84.99 -20 85.98 -20 87 C-20.66 87 -21.32 87 -22 87 C-21.83825287 86.49828278 -21.67650574 85.99656555 -21.50985718 85.47964478 C-20.81446667 82.09767527 -20.84725308 78.762981 -20.84228516 75.32568359 C-20.83720444 74.55778 -20.83212372 73.7898764 -20.82688904 72.998703 C-20.81620714 71.33505764 -20.80757845 69.67139811 -20.80076981 68.00773239 C-20.78896721 65.37719989 -20.76951395 62.74683055 -20.74765015 60.11636353 C-20.68605752 52.63882834 -20.63187569 45.1613131 -20.59863281 37.68359375 C-20.5777431 33.107697 -20.54249472 28.53210314 -20.49787521 23.95637894 C-20.48367837 22.21084774 -20.4749845 20.46526303 -20.47182083 18.71967697 C-20.46693763 16.28463515 -20.44385127 13.8504054 -20.41650391 11.41552734 C-20.41951004 10.69029373 -20.42251617 9.96506012 -20.4256134 9.21784973 C-20.39199829 7.21273804 -20.39199829 7.21273804 -20 4 C-14.44704395 0.2980293 -6.60378438 -0.5213514 0 0 Z " fill="#DB9930" transform="translate(434,216)"/>
<path d="M0 0 C-4.33341613 4.33341613 -12.96464485 3.12700684 -18.77905273 3.1394043 C-20.37342163 3.13227417 -20.37342163 3.13227417 -22 3.125 C-23.10996338 3.12089111 -24.21992676 3.11678223 -25.36352539 3.11254883 C-42.47399871 2.99689551 -59.5387062 1.99679221 -76 -3 C-76 -3.66 -76 -4.32 -76 -5 C-55.16545174 -11.51079633 -19.42169058 -11.0981089 0 0 Z " fill="#F0ECD8" transform="translate(361,235)"/>
<path d="M0 0 C0.38218767 1.65614657 0.71395102 3.32457024 1 5 C0.67 5.33 0.34 5.66 0 6 C-4.87342969 5.59388086 -9.10907949 4.4003378 -13.69140625 2.71875 C-25.17921083 -0.85782537 -38.1311985 -0.02877569 -49.265625 4.125 C-52.01850246 5.00592079 -54.1319866 5.16747523 -57 5 C-57.33 3.68 -57.66 2.36 -58 1 C-42.41801032 -12.00984306 -16.93578693 -7.02521532 0 0 Z " fill="#DD992B" transform="translate(230,179)"/>
<path d="M0 0 C13.16901408 9.33802817 13.16901408 9.33802817 16 15 C16.58098308 20.14585012 16.58098308 20.14585012 16 23 C12.86911163 26.13088837 10.2142201 27.23435299 5.875 27.4375 C0.24113475 26.80141844 0.24113475 26.80141844 -2 24 C-2.5 21 -2.5 21 -2 18 C0 16.125 0 16.125 2 15 C1.65555119 12.52733235 1.65555119 12.52733235 1 10 C-2.17878694 8.41060653 -4.4956772 8.58423289 -8 9 C-10.86160622 11.13098336 -11.744664 11.81642267 -13 15 C-13.40406336 19.36699243 -13.29187175 23.62840976 -13 28 C-13.66 28 -14.32 28 -15 28 C-15.22245975 25.75135275 -15.42746557 23.50097377 -15.625 21.25 C-15.74101562 19.99703125 -15.85703125 18.7440625 -15.9765625 17.453125 C-15.99888599 14.16413097 -15.77961002 12.68979224 -14 10 C-13.01 10 -12.02 10 -11 10 C-11 9.34 -11 8.68 -11 8 C-7.71536341 5.81024227 -4.79303725 5.00193437 -1 4 C-0.67 2.68 -0.34 1.36 0 0 Z " fill="#F8EECE" transform="translate(238,294)"/>
<path d="M0 0 C2.75307174 0.65204331 3.70350396 1.30598035 5.375 3.5625 C6.79298392 7.81645176 7.29930874 11.47225825 5.43359375 15.69140625 C3.03760928 19.76983749 0.87912992 22.73939979 -3.625 24.5625 C-7.4375 25.25 -7.4375 25.25 -10.625 25.5625 C-11.01816282 17.43713496 -10.26343834 9.65898673 -5.25 2.9375 C-2.625 0.5625 -2.625 0.5625 0 0 Z " fill="#F9F0D7" transform="translate(383.625,266.4375)"/>
<path d="M0 0 C1.03640625 -0.00515625 2.0728125 -0.0103125 3.140625 -0.015625 C5.75 0.25 5.75 0.25 7.75 2.25 C8.1640625 4.4140625 8.1640625 4.4140625 8.375 6.875 C8.44976562 7.69226563 8.52453125 8.50953125 8.6015625 9.3515625 C8.67503906 10.29128906 8.67503906 10.29128906 8.75 11.25 C8.09 11.25 7.43 11.25 6.75 11.25 C6.09 8.61 5.43 5.97 4.75 3.25 C2.81257659 3.22296619 0.87504521 3.20358875 -1.0625 3.1875 C-2.68091797 3.17009766 -2.68091797 3.17009766 -4.33203125 3.15234375 C-7.31512169 3.11375234 -7.31512169 3.11375234 -10.25 4.25 C-10.25 26.69 -10.25 49.13 -10.25 72.25 C-4.64 72.25 0.97 72.25 6.75 72.25 C6.75 58.06 6.75 43.87 6.75 29.25 C7.08 29.25 7.41 29.25 7.75 29.25 C7.75 43.77 7.75 58.29 7.75 73.25 C1.15 73.25 -5.45 73.25 -12.25 73.25 C-12.25 49.82 -12.25 26.39 -12.25 2.25 C-7.39621958 0.63207319 -4.85949823 -0.02441959 0 0 Z " fill="#D39737" transform="translate(294.25,256.75)"/>
<path d="M0 0 C1.134375 0.020625 2.26875 0.04125 3.4375 0.0625 C3.4375 0.3925 3.4375 0.7225 3.4375 1.0625 C1.7875 1.3925 0.1375 1.7225 -1.5625 2.0625 C-1.8925 25.4925 -2.2225 48.9225 -2.5625 73.0625 C4.0375 73.0625 10.6375 73.0625 17.4375 73.0625 C17.4375 57.2225 17.4375 41.3825 17.4375 25.0625 C17.7675 25.0625 18.0975 25.0625 18.4375 25.0625 C18.46276838 32.02253447 18.48033222 38.9825572 18.49243164 45.94262695 C18.49747341 48.31242312 18.50430665 50.68221615 18.51293945 53.05200195 C18.5250119 56.45004039 18.53072971 59.84803785 18.53515625 63.24609375 C18.54031754 64.31274765 18.54547882 65.37940155 18.55079651 66.4783783 C18.55090981 67.94979027 18.55090981 67.94979027 18.55102539 69.45092773 C18.553246 70.31918686 18.55546661 71.18744598 18.55775452 72.08201599 C18.4375 74.0625 18.4375 74.0625 17.4375 75.0625 C15.88794441 75.16149523 14.33396327 75.19329524 12.78125 75.1953125 C11.37166016 75.19724609 11.37166016 75.19724609 9.93359375 75.19921875 C8.45052734 75.19341797 8.45052734 75.19341797 6.9375 75.1875 C5.94878906 75.19136719 4.96007812 75.19523437 3.94140625 75.19921875 C3.00167969 75.19792969 2.06195313 75.19664062 1.09375 75.1953125 C0.22556641 75.19418457 -0.64261719 75.19305664 -1.53710938 75.19189453 C-3.5625 75.0625 -3.5625 75.0625 -4.5625 74.0625 C-6.3252529 60.35611691 -5.5424848 46.32855278 -5.265625 32.55737305 C-5.21300773 29.90891562 -5.1634775 27.26065979 -5.12011719 24.61206055 C-5.05686558 20.76338887 -4.98675184 16.9149101 -4.9140625 13.06640625 C-4.89421295 11.87495499 -4.8743634 10.68350372 -4.85391235 9.45594788 C-4.83073944 8.36648361 -4.80756653 7.27701935 -4.78369141 6.15454102 C-4.76513092 5.19242203 -4.74657043 4.23030304 -4.72744751 3.23902893 C-4.44863622 -0.43996469 -3.85403935 0.06761473 0 0 Z " fill="#F6E4B3" transform="translate(284.5625,256.9375)"/>
<path d="M0 0 C2.54186606 0.31094086 5.08348598 0.62370536 7.625 0.9375 C8.69427734 1.06801758 8.69427734 1.06801758 9.78515625 1.20117188 C12.87366878 1.58369407 15.93463431 1.98842483 19 2.53125 C22.78628028 3.12285629 26.55138888 3.35161367 30.375 3.5625 C31.11105469 3.60568359 31.84710938 3.64886719 32.60546875 3.69335938 C34.40348068 3.79843799 36.20171958 3.89962093 38 4 C38 4.33 38 4.66 38 5 C35.36 5.33 32.72 5.66 30 6 C30 6.99 30 7.98 30 9 C32.31 9.33 34.62 9.66 37 10 C37 10.33 37 10.66 37 11 C27.32236027 10.76875413 17.93767116 10.06414456 8.4375 8.125 C7.19746216 7.88281738 7.19746216 7.88281738 5.93237305 7.63574219 C3.62109375 7.1328125 3.62109375 7.1328125 0 6 C-1 3 -1 3 0 0 Z " fill="#335136" transform="translate(288,233)"/>
<path d="M0 0 C0 0.33 0 0.66 0 1 C-1.89385437 1.50744423 -3.79018666 2.00564574 -5.6875 2.5 C-6.74324219 2.7784375 -7.79898437 3.056875 -8.88671875 3.34375 C-12 4 -12 4 -17 4 C-17.33 30.4 -17.66 56.8 -18 84 C-18.66 84 -19.32 84 -20 84 C-20 84.99 -20 85.98 -20 87 C-20.66 87 -21.32 87 -22 87 C-21.83825287 86.49828278 -21.67650574 85.99656555 -21.50985718 85.47964478 C-20.81446667 82.09767527 -20.84725308 78.762981 -20.84228516 75.32568359 C-20.83720444 74.55778 -20.83212372 73.7898764 -20.82688904 72.998703 C-20.81620714 71.33505764 -20.80757845 69.67139811 -20.80076981 68.00773239 C-20.78896721 65.37719989 -20.76951395 62.74683055 -20.74765015 60.11636353 C-20.68605752 52.63882834 -20.63187569 45.1613131 -20.59863281 37.68359375 C-20.5777431 33.107697 -20.54249472 28.53210314 -20.49787521 23.95637894 C-20.48367837 22.21084774 -20.4749845 20.46526303 -20.47182083 18.71967697 C-20.46693763 16.28463515 -20.44385127 13.8504054 -20.41650391 11.41552734 C-20.41951004 10.69029373 -20.42251617 9.96506012 -20.4256134 9.21784973 C-20.39199829 7.21273804 -20.39199829 7.21273804 -20 4 C-14.34997552 0.23331701 -6.6999555 -0.36215976 0 0 Z " fill="#DBA342" transform="translate(434,216)"/>
<path d="M0 0 C2.5 0.125 2.5 0.125 3.5 1.125 C3.75256877 5.09775815 3.68522451 9.08266175 3.6875 13.0625 C3.69974609 14.18591797 3.71199219 15.30933594 3.72460938 16.46679688 C3.72750977 18.07458008 3.72750977 18.07458008 3.73046875 19.71484375 C3.73457764 20.70347412 3.73868652 21.69210449 3.74291992 22.71069336 C3.5 25.125 3.5 25.125 1.5 27.125 C-0.5625 26.9375 -0.5625 26.9375 -2.5 26.125 C-3.49259618 23.14721146 -3.62891582 21.16257049 -3.6328125 18.0546875 C-3.63410156 17.07628906 -3.63539063 16.09789062 -3.63671875 15.08984375 C-3.63285156 14.07019531 -3.62898437 13.05054688 -3.625 12 C-3.62886719 10.97261719 -3.63273438 9.94523438 -3.63671875 8.88671875 C-3.63542969 7.91089844 -3.63414062 6.93507812 -3.6328125 5.9296875 C-3.63168457 5.03233887 -3.63055664 4.13499023 -3.62939453 3.21044922 C-3.43863983 0.13605923 -3.09453308 0.15472665 0 0 Z " fill="#D6A34F" transform="translate(201.5,134.875)"/>
<path d="M0 0 C0.99 0.33 1.98 0.66 3 1 C2.13375 2.0828125 2.13375 2.0828125 1.25 3.1875 C-5.4631285 13.68875101 -5.39086493 24.26760226 -4.76464844 36.3293457 C-4.48327521 44.27324592 -4.48327521 44.27324592 -7.296875 48.23046875 C-10.47896483 50.31354201 -12.26759543 50.43400053 -16 50 C-18.74325782 45.99427405 -18.25301454 41.73133001 -18.1953125 37.078125 C-18.1924826 36.21813904 -18.18965271 35.35815308 -18.18673706 34.47210693 C-18.1755615 31.73126179 -18.15046179 28.99074602 -18.125 26.25 C-18.1149668 24.38932764 -18.10584155 22.52865015 -18.09765625 20.66796875 C-18.07563076 16.11185268 -18.04111897 11.55598214 -18 7 C-17.67 7 -17.34 7 -17 7 C-16.67 19.87 -16.34 32.74 -16 46 C-15.01 46 -14.02 46 -13 46 C-13 45.01 -13 44.02 -13 43 C-12.34 43 -11.68 43 -11 43 C-10.67 43.66 -10.34 44.32 -10 45 C-9.01 44.505 -9.01 44.505 -8 44 C-7.34444881 41.47266765 -7.34444881 41.47266765 -7 39 C-7.66 38.67 -8.32 38.34 -9 38 C-8.72136346 34.10312015 -8.42481083 30.20780344 -8.125 26.3125 C-8.04636719 25.20970703 -7.96773438 24.10691406 -7.88671875 22.97070312 C-7.80292969 21.90400391 -7.71914063 20.83730469 -7.6328125 19.73828125 C-7.55949707 18.75899658 -7.48618164 17.77971191 -7.41064453 16.77075195 C-6.98841198 13.92181188 -6.17503294 11.61977985 -5 9 C-4.34 9 -3.68 9 -3 9 C-3 7.35 -3 5.7 -3 4 C-2.01 3.67 -1.02 3.34 0 3 C0 2.01 0 1.02 0 0 Z " fill="#FAEEC6" transform="translate(358,267)"/>
<path d="M0 0 C0.33 0 0.66 0 1 0 C1 2.97 1 5.94 1 9 C0.34 9 -0.32 9 -1 9 C-1.02701408 11.10409639 -1.04640223 13.20829178 -1.0625 15.3125 C-1.07410156 16.48425781 -1.08570313 17.65601563 -1.09765625 18.86328125 C-1.14899898 22.03059195 -1.14899898 22.03059195 0 25 C0.0685495 26.89470816 0.08480372 28.7916834 0.0625 30.6875 C0.05347656 31.68136719 0.04445313 32.67523438 0.03515625 33.69921875 C0.02355469 34.45847656 0.01195312 35.21773438 0 36 C-0.66 36 -1.32 36 -2 36 C-2 37.32 -2 38.64 -2 40 C-1.01 39.505 -1.01 39.505 0 39 C0 39.66 0 40.32 0 41 C0.78375 40.938125 1.5675 40.87625 2.375 40.8125 C3.674375 40.9053125 3.674375 40.9053125 5 41 C5.66 41.99 6.32 42.98 7 44 C6.67 44.99 6.34 45.98 6 47 C4.68 46.01 3.36 45.02 2 44 C1.57847656 44.5053125 1.15695312 45.010625 0.72265625 45.53125 C-0.09912109 46.50578125 -0.09912109 46.50578125 -0.9375 47.5 C-1.48277344 48.1496875 -2.02804687 48.799375 -2.58984375 49.46875 C-3.05519531 49.9740625 -3.52054687 50.479375 -4 51 C-4.33 51 -4.66 51 -5 51 C-5 49.02 -5 47.04 -5 45 C-2.525 44.505 -2.525 44.505 0 44 C-2.76568166 42.15621222 -4.82962523 41.90474034 -8.0625 42 C-12 42 -12 42 -15 40 C-14.67 38.68 -14.34 37.36 -14 36 C-13.67 36.99 -13.34 37.98 -13 39 C-8.58249229 39.41192105 -8.58249229 39.41192105 -4.81469727 37.32861328 C-2.56722517 34.44466483 -2.5646074 33.10451024 -2.71484375 29.4921875 C-2.74126953 28.42226563 -2.76769531 27.35234375 -2.79492188 26.25 C-2.84197266 25.13625 -2.88902344 24.0225 -2.9375 22.875 C-3.26444595 14.6183948 -2.95402713 7.78320977 0 0 Z " fill="#DA9A30" transform="translate(355,277)"/>
<path d="M0 0 C-0.49216591 4.24247013 -2.88410863 6.18864351 -5.875 9.0625 C-6.75929688 9.91972656 -7.64359375 10.77695313 -8.5546875 11.66015625 C-9.95776442 13.00271708 -11.37027665 14.33588811 -12.80859375 15.640625 C-14.27497943 17.03713753 -14.27497943 17.03713753 -14.1875 19.6875 C-14.125625 20.450625 -14.06375 21.21375 -14 22 C-19.19644079 20.40109514 -24.06612142 18.25861997 -29 16 C-29 15.34 -29 14.68 -29 14 C-28.3709375 13.98582031 -27.741875 13.97164062 -27.09375 13.95703125 C-16.73652906 13.37989695 -11.24134935 8.50970383 -3.8828125 1.57421875 C-2 0 -2 0 0 0 Z " fill="#3C543A" transform="translate(380,182)"/>
<path d="M0 0 C0.33 0 0.66 0 1 0 C1.1875 2.375 1.1875 2.375 1 5 C0.01 5.66 -0.98 6.32 -2 7 C-2 7.99 -2 8.98 -2 10 C-0.35 10.66 1.3 11.32 3 12 C-0.66866356 16.5142775 -4.33534808 20.50151106 -9 24 C-9.66 24 -10.32 24 -11 24 C-10.67 23.01 -10.34 22.02 -10 21 C-9.01 21 -8.02 21 -7 21 C-7 18.69 -7 16.38 -7 14 C-8.30116586 13.90340904 -8.30116586 13.90340904 -10.13671875 15.51953125 C-13.7222533 17.37344339 -15.83526127 17.12941541 -19.8125 16.6875 C-20.97394531 16.56761719 -22.13539063 16.44773437 -23.33203125 16.32421875 C-24.21246094 16.21722656 -25.09289062 16.11023438 -26 16 C-26 15.67 -26 15.34 -26 15 C-25.13117188 14.90203125 -24.26234375 14.8040625 -23.3671875 14.703125 C-13.6199809 13.43838678 -8.47832235 11.13404629 -2.19921875 3.5859375 C-0.92342233 1.99913627 -0.92342233 1.99913627 0 0 Z " fill="#E0961E" transform="translate(411,303)"/>
<path d="M0 0 C11.88 0 23.76 0 36 0 C36 0.33 36 0.66 36 1 C35.01257813 1.12117187 34.02515625 1.24234375 33.0078125 1.3671875 C31.08582031 1.61855469 31.08582031 1.61855469 29.125 1.875 C27.21074219 2.11863281 27.21074219 2.11863281 25.2578125 2.3671875 C21.92835773 2.69877473 21.92835773 2.69877473 20 5 C14.11981331 6.96006223 8.00309571 6.00051595 2 5 C1.34 3.35 0.68 1.7 0 0 Z " fill="#2C4B2D" transform="translate(316,238)"/>
<path d="M0 0 C0.33 0.99 0.66 1.98 1 3 C0.67 3.66 0.34 4.32 0 5 C1.32 5.33 2.64 5.66 4 6 C2.78376953 6.07347656 2.78376953 6.07347656 1.54296875 6.1484375 C-5.76135227 6.64162798 -12.83026922 7.52007561 -20 9 C-19.67 7.68 -19.34 6.36 -19 5 C-19.66 4.67 -20.32 4.34 -21 4 C-13.81947541 0.51098155 -7.9587799 -0.54470737 0 0 Z " fill="#2F4F31" transform="translate(288,131)"/>
<path d="M0 0 C1.04542969 -0.01417969 2.09085937 -0.02835937 3.16796875 -0.04296875 C5.8125 0.1875 5.8125 0.1875 7.8125 2.1875 C8.2265625 4.3515625 8.2265625 4.3515625 8.4375 6.8125 C8.51226562 7.62976563 8.58703125 8.44703125 8.6640625 9.2890625 C8.73753906 10.22878906 8.73753906 10.22878906 8.8125 11.1875 C8.1525 11.1875 7.4925 11.1875 6.8125 11.1875 C6.1525 8.5475 5.4925 5.9075 4.8125 3.1875 C2.87507659 3.16046619 0.93754521 3.14108875 -1 3.125 C-2.61841797 3.10759766 -2.61841797 3.10759766 -4.26953125 3.08984375 C-7.25262169 3.05125234 -7.25262169 3.05125234 -10.1875 4.1875 C-10.1875 26.2975 -10.1875 48.4075 -10.1875 71.1875 C-10.5175 71.1875 -10.8475 71.1875 -11.1875 71.1875 C-11.1875 48.0875 -11.1875 24.9875 -11.1875 1.1875 C-7.21899032 0.39379806 -3.99312997 0.02480205 0 0 Z " fill="#E39418" transform="translate(294.1875,256.8125)"/>
<path d="M0 0 C-0.99 2.31 -1.98 4.62 -3 7 C-3.64324219 6.71125 -4.28648437 6.4225 -4.94921875 6.125 C-12.47667599 3.03240701 -18.91542489 2.53728982 -27 3 C-27 2.34 -27 1.68 -27 1 C-24.36 1 -21.72 1 -19 1 C-18.67 0.01 -18.34 -0.98 -18 -2 C-12.46905513 -6.25457297 -5.52942816 -2.59544587 0 0 Z " fill="#3D5A3D" transform="translate(391,144)"/>
<path d="M0 0 C1.23556641 0.01740234 1.23556641 0.01740234 2.49609375 0.03515625 C3.32238281 0.04417969 4.14867187 0.05320312 5 0.0625 C5.63808594 0.07410156 6.27617187 0.08570313 6.93359375 0.09765625 C6.60359375 0.75765625 6.27359375 1.41765625 5.93359375 2.09765625 C4.30849934 2.37426806 2.67897386 2.63321296 1.04077148 2.81689453 C-1.09998922 3.10213087 -3.1200461 3.58349425 -5.21875 4.08984375 C-12.9552832 5.6620267 -20.82651319 5.56539115 -28.69140625 5.72265625 C-30.28387357 5.76091957 -31.87632204 5.79997586 -33.46875 5.83984375 C-37.33447893 5.9349216 -41.20030419 6.0192764 -45.06640625 6.09765625 C-46.05640625 8.40765625 -47.04640625 10.71765625 -48.06640625 13.09765625 C-50.06640625 10.09765625 -50.06640625 10.09765625 -50.06640625 8.09765625 C-49.40640625 7.76765625 -48.74640625 7.43765625 -48.06640625 7.09765625 C-46.93290091 5.08095798 -46.93290091 5.08095798 -46.06640625 3.09765625 C-44.69875122 3.06007202 -44.69875122 3.06007202 -43.3034668 3.02172852 C-39.86848235 2.92567702 -36.43361543 2.82651019 -32.9987793 2.7253418 C-31.52192613 2.68245764 -30.045038 2.64075798 -28.56811523 2.6003418 C-18.99920066 2.33751301 -8.92016167 0.42155773 0 0 Z " fill="#FBF0CB" transform="translate(203.06640625,312.90234375)"/>
<path d="M0 0 C1.98 0 3.96 0 6 0 C5.54646232 4.86441396 3.43085794 7.26522565 0.1875 10.8125 C-0.68519531 11.78832031 -1.55789062 12.76414063 -2.45703125 13.76953125 C-5 16 -5 16 -9 16 C-8.89743098 10.97411782 -8.14474361 8.73534859 -4.5 5.1875 C-3.8709375 4.62417969 -3.241875 4.06085938 -2.59375 3.48046875 C-0.88908719 2.07063055 -0.88908719 2.07063055 0 0 Z " fill="#D7A542" transform="translate(224,149)"/>
<path d="M0 0 C4.15599318 0.33100831 6.05796761 2.77644789 8.75 5.75 C9.94882813 7.04164063 9.94882813 7.04164063 11.171875 8.359375 C13.17732124 11.25613068 13.42042001 12.56244812 13 16 C11.68 16.33 10.36 16.66 9 17 C7.50595184 15.47275077 6.03028393 13.9275078 4.5625 12.375 C3.73878906 11.51648438 2.91507813 10.65796875 2.06640625 9.7734375 C-0.20917681 6.71925229 -0.78931208 4.77077349 -1 1 C-0.67 0.67 -0.34 0.34 0 0 Z " fill="#E09B30" transform="translate(175,148)"/>
<path d="M0 0 C6.05804073 0.06862868 11.39755246 0.96049909 17.19921875 2.65625 C19.6888196 3.44307196 19.6888196 3.44307196 22.625 3.3125 C22.295 2.3225 21.965 1.3325 21.625 0.3125 C24.96873475 0.86978913 27.65812999 1.66423889 30.625 3.3125 C30.295 4.9625 29.965 6.6125 29.625 8.3125 C24.76150236 7.79510663 20.52531634 6.71628581 15.93359375 5.03125 C10.48634444 3.33532128 4.9072378 3.06201764 -0.75 2.75 C-1.48605469 2.70681641 -2.22210938 2.66363281 -2.98046875 2.61914062 C-4.77848068 2.51406201 -6.57671958 2.41287907 -8.375 2.3125 C-5.59759459 -0.46490541 -3.88152015 0.01285272 0 0 Z " fill="#DC9524" transform="translate(200.375,176.6875)"/>
<path d="M0 0 C0 0.66 0 1.32 0 2 C0.66 2.33 1.32 2.66 2 3 C-1.53719598 4.23678181 -3.65139712 3.71226436 -7.1875 2.625 C-15.04759823 0.49196219 -22.90443695 0.27816508 -31 0 C-31 -0.66 -31 -1.32 -31 -2 C-21.19592947 -5.26802351 -9.61649826 -2.72440423 0 0 Z " fill="#E49011" transform="translate(222,177)"/>
<path d="M0 0 C1.9375 0.5625 1.9375 0.5625 4 2 C5.39302811 7.57211242 5.09402321 13.28547854 5 19 C5 19.66 5 20.32 5 21 C5.99 21.33 6.98 21.66 8 22 C7.67 22.99 7.34 23.98 7 25 C3.3769071 23.3353357 2.10605831 22.19748788 0.1875 18.625 C-0.85886451 15.43083467 -1.30039243 13.30431676 -1 10 C-0.34 10 0.32 10 1 10 C0.67 9.01 0.34 8.02 0 7 C-0.03954234 4.66700175 -0.04401732 2.33291811 0 0 Z " fill="#2D4D2F" transform="translate(251,162)"/>
<path d="M0 0 C0.495 0.33 0.99 0.66 1.5 1 C0.84 2.65 0.18 4.3 -0.5 6 C-6.41492272 5.54775239 -11.85199888 4.8417395 -17.5 3 C-17.5 2.34 -17.5 1.68 -17.5 1 C-11.68449975 -0.93850008 -5.93541281 -2.37416512 0 0 Z " fill="#E7E6D2" transform="translate(302.5,229)"/>
<path d="M0 0 C0 22.11 0 44.22 0 67 C-0.33 67 -0.66 67 -1 67 C-1 45.55 -1 24.1 -1 2 C-1.99 2.495 -1.99 2.495 -3 3 C-4.54023996 3.06950541 -6.08334988 3.08452357 -7.625 3.0625 C-8.85089844 3.04896484 -8.85089844 3.04896484 -10.1015625 3.03515625 C-11.04128906 3.01775391 -11.04128906 3.01775391 -12 3 C-7.68900007 0.77017245 -5.01914859 0 0 0 Z " fill="#E39321" transform="translate(434,217)"/>
<path d="M0 0 C0.33 0 0.66 0 1 0 C1.03758423 1.78615723 1.03758423 1.78615723 1.07592773 3.60839844 C1.17014647 8.02907958 1.27033189 12.4496089 1.37231445 16.87011719 C1.41560857 18.78284146 1.45728756 20.695603 1.49731445 22.60839844 C1.5551508 25.35883818 1.61880676 28.10909128 1.68359375 30.859375 C1.70030624 31.71368103 1.71701874 32.56798706 1.73423767 33.44818115 C1.75418289 34.24870911 1.77412811 35.04923706 1.79467773 35.87402344 C1.81022202 36.57573669 1.8257663 37.27744995 1.84178162 38.00042725 C2.00726836 40.09185797 2.43584497 41.98256308 3 44 C2.34 44 1.68 44 1 44 C-1.57137733 40.142934 -1.27029169 36.96865327 -1.23046875 32.5 C-1.23001053 31.66791016 -1.22955231 30.83582031 -1.2290802 29.97851562 C-1.2260605 28.22003757 -1.21818259 26.46156213 -1.20581055 24.703125 C-1.18756991 22.01032033 -1.18530082 19.31785997 -1.18554688 16.625 C-1.18063084 14.91666369 -1.17480215 13.20832971 -1.16796875 11.5 C-1.16685593 10.69369141 -1.1657431 9.88738281 -1.16459656 9.05664062 C-1.13680585 5.78580379 -1.04145738 3.12437213 0 0 Z " fill="#F8E6B1" transform="translate(319,278)"/>
<path d="M0 0 C0.33 0 0.66 0 1 0 C1 9.43709677 1 9.43709677 -3.25 14.1875 C-4.03890625 15.08855469 -4.8278125 15.98960937 -5.640625 16.91796875 C-8 19 -8 19 -12 19 C-11.49697411 14.59852343 -9.97554199 12.24604581 -7 9 C-6.34 8.67 -5.68 8.34 -5 8 C-4.34 8.33 -3.68 8.66 -3 9 C-2.01 6.03 -1.02 3.06 0 0 Z " fill="#3B563C" transform="translate(306,130)"/>
<path d="M0 0 C9.9 0 19.8 0 30 0 C30 0.33 30 0.66 30 1 C29.21625 1.103125 28.4325 1.20625 27.625 1.3125 C24.66954819 1.77595022 24.66954819 1.77595022 23 5 C19.9609375 5.29296875 19.9609375 5.29296875 16.375 5.1875 C15.18648438 5.16042969 13.99796875 5.13335937 12.7734375 5.10546875 C11.40058594 5.05326172 11.40058594 5.05326172 10 5 C10.66 3.68 11.32 2.36 12 1 C8.04 1 4.08 1 0 1 C0 0.67 0 0.34 0 0 Z " fill="#3E5D41" transform="translate(299,221)"/>
<path d="M0 0 C0.66 0 1.32 0 2 0 C1.84086085 7.16126186 -1.70653755 12.4176099 -6 18 C-8.23046875 19.828125 -8.23046875 19.828125 -10 21 C-9.47394983 16.17907443 -8.07817982 12.93905172 -5.5625 8.8125 C-4.94503906 7.78769531 -4.32757813 6.76289063 -3.69140625 5.70703125 C-2.49088734 3.78564648 -1.25673142 1.88509714 0 0 Z " fill="#3F573B" transform="translate(351,174)"/>
<path d="M0 0 C3.29680965 0.65784963 5.84117922 1.89420573 8.75 3.5625 C9.94882812 4.24505859 9.94882812 4.24505859 11.171875 4.94140625 C11.77515625 5.29074219 12.3784375 5.64007813 13 6 C12.01 7.485 12.01 7.485 11 9 C10.67 9.66 10.34 10.32 10 11 C5.16233301 10.58534283 3.14353624 8.5801385 0 5 C-0.33 4.34 -0.66 3.68 -1 3 C-0.67 2.01 -0.34 1.02 0 0 Z " fill="#305034" transform="translate(262,188)"/>
<path d="M0 0 C4.45397111 4.31029462 5.21717962 6.3892657 5.4375 12.625 C5.40666798 18.63107819 4.61060415 22.00788406 0.703125 26.546875 C-1.09641305 28.08226068 -2.84373861 29.04374495 -5 30 C-4.8125 27.125 -4.8125 27.125 -4 24 C-1.5 22.75 -1.5 22.75 1 22 C3.62473488 16.75053023 2.60700622 8.22654273 1 2.6875 C0.67 1.800625 0.34 0.91375 0 0 Z " fill="#D79B33" transform="translate(269,297)"/>
<path d="M0 0 C1.09183594 -0.00515625 2.18367188 -0.0103125 3.30859375 -0.015625 C6.67951578 0.25955231 9.41125625 1.05224219 12.5625 2.25 C12.5625 2.58 12.5625 2.91 12.5625 3.25 C5.3025 3.25 -1.9575 3.25 -9.4375 3.25 C-9.4375 3.91 -9.4375 4.57 -9.4375 5.25 C-10.035625 5.353125 -10.63375 5.45625 -11.25 5.5625 C-13.83135573 6.37378323 -14.77267123 7.13112703 -16.4375 9.25 C-17.62777984 11.84915538 -17.62777984 11.84915538 -18.4375 14.25 C-19.0975 14.25 -19.7575 14.25 -20.4375 14.25 C-19.1879642 8.41883293 -16.25900006 5.45789182 -11.4375 2.25 C-7.5351186 0.31190454 -4.33769544 -0.02043673 0 0 Z " fill="#D5952C" transform="translate(251.4375,255.75)"/>
<path d="M0 0 C0.66 0 1.32 0 2 0 C2.33 0.99 2.66 1.98 3 3 C5.64 2.67 8.28 2.34 11 2 C10.67 2.66 10.34 3.32 10 4 C8.68 4 7.36 4 6 4 C6 13.24 6 22.48 6 32 C5.67 32 5.34 32 5 32 C4.67 25.07 4.34 18.14 4 11 C3.01 11 2.02 11 1 11 C0.67 7.37 0.34 3.74 0 0 Z " fill="#546D53" transform="translate(366,205)"/>
<path d="M0 0 C3.56695591 1.1889853 4.28715826 2.34748618 6.5 5.3125 C7.38171875 6.48232422 7.38171875 6.48232422 8.28125 7.67578125 C9.13203125 8.82626953 9.13203125 8.82626953 10 10 C10.99963646 11.33360591 11.99951202 12.66703279 13 14 C12.34 15.32 11.68 16.64 11 18 C5.72570086 13.17778365 0.69254161 7.38711053 0 0 Z " fill="#344F34" transform="translate(272,175)"/>
<path d="M0 0 C0 0.33 0 0.66 0 1 C-0.69037354 0.98952637 -1.38074707 0.97905273 -2.09204102 0.96826172 C-5.24882299 0.92644303 -8.40554645 0.90059198 -11.5625 0.875 C-12.64853516 0.85824219 -13.73457031 0.84148437 -14.85351562 0.82421875 C-20.70295293 0.78865986 -25.46219464 1.15406488 -31 3 C-33.71562756 3.21794764 -36.26760245 3.0958736 -39 3 C-28.01630255 -4.32246496 -12.2556853 -3.56529027 0 0 Z " fill="#F6E8BB" transform="translate(217,181)"/>
<path d="M0 0 C4.57401341 2.71733144 7.80000335 6.27501006 9.5 11.375 C9.56937062 13.60318441 9.58457084 15.83334524 9.5625 18.0625 C9.55347656 19.24199219 9.54445313 20.42148437 9.53515625 21.63671875 C9.52355469 22.54035156 9.51195312 23.44398438 9.5 24.375 C9.17 24.375 8.84 24.375 8.5 24.375 C8.45101562 23.57835937 8.40203125 22.78171875 8.3515625 21.9609375 C7.9311194 13.94160577 7.9311194 13.94160577 5.5 6.375 C4.51 6.045 3.52 5.715 2.5 5.375 C2.5 4.715 2.5 4.055 2.5 3.375 C-7.06183375 -0.42260773 -14.63437648 -0.23717455 -24.5 2.375 C-23.5 0.375 -23.5 0.375 -20.8359375 -0.7265625 C-14.13115257 -2.53230083 -6.4347815 -2.93602198 0 0 Z " fill="#D2983A" transform="translate(394.5,257.625)"/>
<path d="M0 0 C0.66 0.33 1.32 0.66 2 1 C2 8.26 2 15.52 2 23 C1.01 23 0.02 23 -1 23 C-1.02887512 19.35418313 -1.04675585 15.70839537 -1.0625 12.0625 C-1.07087891 11.02158203 -1.07925781 9.98066406 -1.08789062 8.90820312 C-1.09272461 7.42416992 -1.09272461 7.42416992 -1.09765625 5.91015625 C-1.10289307 4.99371338 -1.10812988 4.07727051 -1.11352539 3.13305664 C-1 1 -1 1 0 0 Z " fill="#E4951A" transform="translate(201,137)"/>
<path d="M0 0 C0.33 0 0.66 0 1 0 C1.1875 2.375 1.1875 2.375 1 5 C0.01 5.66 -0.98 6.32 -2 7 C-2.31324219 7.63292969 -2.62648438 8.26585937 -2.94921875 8.91796875 C-5.04460322 13.06979002 -8.77818678 15.29594411 -13 17 C-17.43770569 17.20397526 -21.62753347 16.74338689 -26 16 C-26 15.67 -26 15.34 -26 15 C-25.13117188 14.90203125 -24.26234375 14.8040625 -23.3671875 14.703125 C-13.6199809 13.43838678 -8.47832235 11.13404629 -2.19921875 3.5859375 C-0.92342233 1.99913627 -0.92342233 1.99913627 0 0 Z " fill="#DD9E35" transform="translate(411,303)"/>
<path d="M0 0 C-10.43243165 4.31686827 -20.98909594 3.51874539 -32 2 C-32 1.67 -32 1.34 -32 1 C-27.92543173 0.68914723 -23.85035972 0.38621042 -19.7746582 0.09057617 C-18.38842945 -0.01109249 -17.00235708 -0.11491751 -15.61645508 -0.22094727 C-13.62363516 -0.37303277 -11.63017889 -0.51670626 -9.63671875 -0.66015625 C-7.83787231 -0.79369507 -7.83787231 -0.79369507 -6.00268555 -0.92993164 C-3 -1 -3 -1 0 0 Z " fill="#DC9E3E" transform="translate(205,329)"/>
<path d="M0 0 C1.33333333 0.66666667 2.66666667 1.33333333 4 2 C5.5778125 2.7734375 5.5778125 2.7734375 7.1875 3.5625 C10 5 10 5 11 6 C12.34015221 6.15582303 13.68758903 6.25044142 15.03515625 6.31640625 C16.24848633 6.37924805 16.24848633 6.37924805 17.48632812 6.44335938 C18.33646484 6.48267578 19.18660156 6.52199219 20.0625 6.5625 C20.91650391 6.60568359 21.77050781 6.64886719 22.65039062 6.69335938 C24.76672037 6.79976702 26.88333813 6.90041731 29 7 C24.11733364 10.25511091 18.71232023 9.44897317 13 9 C8.14883656 7.81952151 3.94500081 4.98280549 0 2 C0 1.34 0 0.68 0 0 Z " fill="#DCA343" transform="translate(227,323)"/>
<path d="M0 0 C0.99 0.33 1.98 0.66 3 1 C2.4225 1.721875 1.845 2.44375 1.25 3.1875 C-4.97911905 12.67526852 -5.69572853 24.00058629 -6 35 C-6.33 35 -6.66 35 -7 35 C-7.05830787 31.60423938 -7.09369946 28.2086085 -7.125 24.8125 C-7.14175781 23.85279297 -7.15851563 22.89308594 -7.17578125 21.90429688 C-7.18222656 20.97294922 -7.18867188 20.04160156 -7.1953125 19.08203125 C-7.20578613 18.22843018 -7.21625977 17.3748291 -7.22705078 16.49536133 C-6.97204194 13.69273185 -6.15541422 11.55270581 -5 9 C-4.34 9 -3.68 9 -3 9 C-3 7.35 -3 5.7 -3 4 C-2.01 3.67 -1.02 3.34 0 3 C0 2.01 0 1.02 0 0 Z " fill="#F8E9B9" transform="translate(358,267)"/>
<path d="M0 0 C2 1 2 1 3.2890625 4.37890625 C3.74198724 5.77098377 4.18697613 7.16566224 4.625 8.5625 C4.85445313 9.27341797 5.08390625 9.98433594 5.3203125 10.71679688 C5.88694208 12.47570953 6.44434258 14.23759039 7 16 C6.34 16.66 5.68 17.32 5 18 C4.01 17.67 3.02 17.34 2 17 C-0.28020848 11.35948428 -0.21802745 6.01998014 0 0 Z " fill="#3C5239" transform="translate(301,170)"/>
<path d="M0 0 C0.66 0 1.32 0 2 0 C2 0.99 2 1.98 2 3 C3.65 3 5.3 3 7 3 C7 4.32 7 5.64 7 7 C8.32 7.33 9.64 7.66 11 8 C11 8.66 11 9.32 11 10 C19.91 9.01 19.91 9.01 29 8 C25.08370002 11.91629998 20.04731196 11.44874007 14.77880859 11.53222656 C9.12734903 11.39815659 6.21295248 9.86506874 2.3203125 5.921875 C0.94738356 3.92341039 0.40962849 2.37374457 0 0 Z " fill="#DA9D34" transform="translate(417,320)"/>
<path d="M0 0 C1.65 0 3.3 0 5 0 C4.2575 0.66 3.515 1.32 2.75 2 C-2.64177273 7.43772534 -4.4652745 13.51384307 -5 21 C-5.33 20.34 -5.66 19.68 -6 19 C-6.66 19 -7.32 19 -8 19 C-5.61751152 7.59447005 -5.61751152 7.59447005 -4 4 C-1.875 3.125 -1.875 3.125 0 3 C0 2.01 0 1.02 0 0 Z " fill="#E4E0BF" transform="translate(235,258)"/>
<path d="M0 0 C-0.66 0.66 -1.32 1.32 -2 2 C-1.67 2.99 -1.34 3.98 -1 5 C-6.66642551 6.22517308 -12.23708518 6.09228867 -18 6 C-18 5.67 -18 5.34 -18 5 C-16.02 5 -14.04 5 -12 5 C-11.67 3.68 -11.34 2.36 -11 1 C-7.32589215 -0.17571451 -3.83070817 -0.07366746 0 0 Z " fill="#426143" transform="translate(338,222)"/>
<path d="M0 0 C1.65 0 3.3 0 5 0 C5 7.92 5 15.84 5 24 C4.34 24 3.68 24 3 24 C2.67 16.74 2.34 9.48 2 2 C1.34 2 0.68 2 0 2 C0 1.34 0 0.68 0 0 Z " fill="#D89C39" transform="translate(200,136)"/>
<path d="M0 0 C1.9375 1.25 1.9375 1.25 3 3 C3 4.32 3 5.64 3 7 C2.01 7 1.02 7 0 7 C-0.33 5.68 -0.66 4.36 -1 3 C-2.98 3 -4.96 3 -7 3 C-7 5.97 -7 8.94 -7 12 C-6.34 12.33 -5.68 12.66 -5 13 C-5.99 13 -6.98 13 -8 13 C-10.09065618 9.60268371 -10.42098999 6.95730595 -10 3 C-7.72054654 -1.02256493 -4.21158603 -0.45124136 0 0 Z " fill="#F8E6B5" transform="translate(257,265)"/>
<path d="M0 0 C0.66 0 1.32 0 2 0 C-1.0472973 10.59628378 -1.0472973 10.59628378 -5 14 C-8.75 14.3125 -8.75 14.3125 -12 14 C-12 13.67 -12 13.34 -12 13 C-11.21625 12.9175 -10.4325 12.835 -9.625 12.75 C-6.9378646 12.29193046 -6.9378646 12.29193046 -5.9375 10.375 C-5.628125 9.59125 -5.31875 8.8075 -5 8 C-1.44019139 1.44019139 -1.44019139 1.44019139 0 0 Z " fill="#F5EECC" transform="translate(450,303)"/>
<path d="M0 0 C6.625 -0.25 6.625 -0.25 10 2 C10 2.99 10 3.98 10 5 C7.64653604 6.17673198 6.1193967 6.16623866 3.5 6.1875 C2.7059375 6.20167969 1.911875 6.21585938 1.09375 6.23046875 C-1 6 -1 6 -3 4 C-1.02 4 0.96 4 3 4 C2.01 2.68 1.02 1.36 0 0 Z " fill="#28472C" transform="translate(334,223)"/>
<path d="M0 0 C1.8871875 0.0309375 1.8871875 0.0309375 3.8125 0.0625 C3.8125 1.0525 3.8125 2.0425 3.8125 3.0625 C2.20993892 3.56762244 0.60538208 4.06641627 -1 4.5625 C-2.33998047 4.98015625 -2.33998047 4.98015625 -3.70703125 5.40625 C-6.1875 6.0625 -6.1875 6.0625 -9.1875 6.0625 C-9.5175 5.0725 -9.8475 4.0825 -10.1875 3.0625 C-9.5275 3.0625 -8.8675 3.0625 -8.1875 3.0625 C-7.8575 2.4025 -7.5275 1.7425 -7.1875 1.0625 C-4.43671116 0.14557039 -2.82801087 -0.04636083 0 0 Z " fill="#2D4F2F" transform="translate(294.1875,192.9375)"/>
<path d="M0 0 C11.55 0.33 23.1 0.66 35 1 C35 1.33 35 1.66 35 2 C23.78 2.33 12.56 2.66 1 3 C0.01 5.31 -0.98 7.62 -2 10 C-4 7 -4 7 -4 5 C-3.34 4.67 -2.68 4.34 -2 4 C-1.34 2.68 -0.68 1.36 0 0 Z " fill="#F2DFAD" transform="translate(157,316)"/>
<path d="M0 0 C-1.33333333 2.66666667 -2.66666667 5.33333333 -4 8 C-5.32 8 -6.64 8 -8 8 C-8.2475 8.94875 -8.495 9.8975 -8.75 10.875 C-10 14 -10 14 -12.125 15.375 C-12.74375 15.58125 -13.3625 15.7875 -14 16 C-12.66871335 12.25782609 -11.02068209 9.42619731 -8.5625 6.3125 C-7.66724609 5.16201172 -7.66724609 5.16201172 -6.75390625 3.98828125 C-4.73287938 1.69718398 -3.18949834 0 0 0 Z " fill="#355335" transform="translate(181,212)"/>
<path d="M0 0 C3.265625 -0.43359375 3.265625 -0.43359375 7.25 -0.4375 C8.55453125 -0.45683594 9.8590625 -0.47617188 11.203125 -0.49609375 C15.50212051 0.06560628 17.69274221 1.24224001 21 4 C21 4.66 21 5.32 21 6 C15.25 4.125 15.25 4.125 13 3 C10.44842345 2.9283265 7.92527029 2.90691558 5.375 2.9375 C4.31539063 2.94426758 4.31539063 2.94426758 3.234375 2.95117188 C1.48954725 2.96296125 -0.255237 2.98089676 -2 3 C-1.34 2.01 -0.68 1.02 0 0 Z " fill="#FAEBC2" transform="translate(377,254)"/>
<path d="M0 0 C0.66 0.33 1.32 0.66 2 1 C2 1.99 2 2.98 2 4 C0.35 4.66 -1.3 5.32 -3 6 C-2.67 5.34 -2.34 4.68 -2 4 C-2.66 3.67 -3.32 3.34 -4 3 C-4 3.66 -4 4.32 -4 5 C-10.27 5 -16.54 5 -23 5 C-23.33 4.34 -23.66 3.68 -24 3 C-22.53240234 3.05220703 -22.53240234 3.05220703 -21.03515625 3.10546875 C-13.35113097 3.26413594 -7.23120976 2.81894618 0 0 Z " fill="#F7EBC1" transform="translate(262,328)"/>
<path d="M0 0 C2.5625 0.3125 2.5625 0.3125 4.3125 1.625 C7.02745253 5.29018592 6.86037592 8.91883014 6.5625 13.3125 C5.0625 16.75 5.0625 16.75 3.5625 19.3125 C2.5625 16.3125 2.5625 16.3125 3 14.625 C3.83989481 11.17209911 3.62164794 7.86137657 3.5625 4.3125 C2.799375 4.168125 2.03625 4.02375 1.25 3.875 C-1.4375 3.3125 -1.4375 3.3125 -4.4375 2.3125 C-2.4375 0.3125 -2.4375 0.3125 0 0 Z " fill="#F7E8B4" transform="translate(383.4375,266.6875)"/>
<path d="M0 0 C1.04542969 -0.01417969 2.09085937 -0.02835937 3.16796875 -0.04296875 C5.8125 0.1875 5.8125 0.1875 7.8125 2.1875 C8.2265625 4.3515625 8.2265625 4.3515625 8.4375 6.8125 C8.51226562 7.62976563 8.58703125 8.44703125 8.6640625 9.2890625 C8.73753906 10.22878906 8.73753906 10.22878906 8.8125 11.1875 C8.1525 11.1875 7.4925 11.1875 6.8125 11.1875 C6.1525 8.5475 5.4925 5.9075 4.8125 3.1875 C-0.4675 2.8575 -5.7475 2.5275 -11.1875 2.1875 C-11.1875 1.8575 -11.1875 1.5275 -11.1875 1.1875 C-7.41207523 0.3151745 -3.87269302 0.02405399 0 0 Z " fill="#D8A044" transform="translate(294.1875,256.8125)"/>
<path d="M0 0 C3.625 -0.1875 3.625 -0.1875 7 0 C5.68 0.33 4.36 0.66 3 1 C2.67 2.32 2.34 3.64 2 5 C-6.25 5 -14.5 5 -23 5 C-23 4.67 -23 4.34 -23 4 C-22.37432129 3.98541748 -21.74864258 3.97083496 -21.10400391 3.95581055 C-18.27703598 3.88147196 -15.45126792 3.78476766 -12.625 3.6875 C-11.64015625 3.66494141 -10.6553125 3.64238281 -9.640625 3.61914062 C-8.69960938 3.58369141 -7.75859375 3.54824219 -6.7890625 3.51171875 C-5.91975098 3.48553467 -5.05043945 3.45935059 -4.15478516 3.43237305 C-1.61399973 3.18654782 -1.61399973 3.18654782 0 0 Z " fill="#2A4A29" transform="translate(324,222)"/>
<path d="M0 0 C2.5 1.75 2.5 1.75 4 4 C3.75 6.25 3.75 6.25 3 8 C1.5 6.6875 1.5 6.6875 0 5 C0 4.01 0 3.02 0 2 C-2.31 2 -4.62 2 -7 2 C-7 2.66 -7 3.32 -7 4 C-9.5 5.625 -9.5 5.625 -12 7 C-9.23139237 0.82387528 -7.03754297 -0.86425966 0 0 Z " fill="#D69932" transform="translate(237,302)"/>
<path d="M0 0 C0 0.99 0 1.98 0 3 C-0.33 2.67 -0.66 2.34 -1 2 C-3.37221956 1.49864801 -3.37221956 1.49864801 -6 2 C-10.49234177 5.96383098 -11.56419052 11.39816758 -13 17 C-13.33 17 -13.66 17 -14 17 C-14.17919347 12.43056647 -14.00723608 9.12598529 -12 5 C-11.505 3.88625 -11.505 3.88625 -11 2.75 C-8.68890029 -1.29442449 -4.09066594 -0.06597848 0 0 Z " fill="#D89D37" transform="translate(387,266)"/>
<path d="M0 0 C0.66 0 1.32 0 2 0 C2 0.99 2 1.98 2 3 C3.32 2.67 4.64 2.34 6 2 C6.33 2.66 6.66 3.32 7 4 C6.45730469 4.33773437 5.91460937 4.67546875 5.35546875 5.0234375 C4.28232422 5.69246094 4.28232422 5.69246094 3.1875 6.375 C2.47980469 6.81585938 1.77210938 7.25671875 1.04296875 7.7109375 C-0.65432039 8.78188476 -2.33014358 9.88676239 -4 11 C-5 8 -5 8 -4.0625 5.8125 C-3.711875 5.214375 -3.36125 4.61625 -3 4 C-2.34 4 -1.68 4 -1 4 C-0.67 2.68 -0.34 1.36 0 0 Z " fill="#3B563C" transform="translate(267,136)"/>
<path d="M0 0 C0.33 0.66 0.66 1.32 1 2 C-5.68298136 5.84477693 -11.41838373 6.92248127 -19 5 C-19.33 4.34 -19.66 3.68 -20 3 C-18.46279297 2.92652344 -18.46279297 2.92652344 -16.89453125 2.8515625 C-15.5338294 2.77648929 -14.17315356 2.70094345 -12.8125 2.625 C-12.13896484 2.5940625 -11.46542969 2.563125 -10.77148438 2.53125 C-6.80321025 2.29896078 -3.59270121 1.71612524 0 0 Z " fill="#F6E4B1" transform="translate(446,328)"/>
<path d="M0 0 C2.31 0 4.62 0 7 0 C7 1.98 7 3.96 7 6 C4.69 6.33 2.38 6.66 0 7 C0 4.69 0 2.38 0 0 Z " fill="#E6910C" transform="translate(262,268)"/>
<path d="M0 0 C3.63 0 7.26 0 11 0 C11 0.33 11 0.66 11 1 C8.36 1.33 5.72 1.66 3 2 C3 2.99 3 3.98 3 5 C5.31 5.33 7.62 5.66 10 6 C10 6.33 10 6.66 10 7 C4.06 6.67 -1.88 6.34 -8 6 C-8 5.67 -8 5.34 -8 5 C-5.69 5 -3.38 5 -1 5 C-0.67 3.35 -0.34 1.7 0 0 Z " fill="#63785F" transform="translate(315,237)"/>
<path d="M0 0 C3.3 0 6.6 0 10 0 C10.33 1.98 10.66 3.96 11 6 C9.5410574 5.52269162 8.08286504 5.04308958 6.625 4.5625 C5.81289063 4.29566406 5.00078125 4.02882812 4.1640625 3.75390625 C2 3 2 3 0 2 C0 1.34 0 0.68 0 0 Z " fill="#4D5F49" transform="translate(351,196)"/>
<path d="M0 0 C0.33 0.66 0.66 1.32 1 2 C-1 4 -1 4 -4.125 4.125 C-5.07375 4.08375 -6.0225 4.0425 -7 4 C-7 5.32 -7 6.64 -7 8 C-8.65 7.67 -10.3 7.34 -12 7 C-12.33 6.01 -12.66 5.02 -13 4 C-8.66335081 0.88303339 -5.19591612 0.44033187 0 0 Z " fill="#466347" transform="translate(283,193)"/>
<path d="M0 0 C0.33 0 0.66 0 1 0 C1.02505615 0.55985596 1.0501123 1.11971191 1.07592773 1.6965332 C1.19203745 4.23541305 1.3146958 6.77393553 1.4375 9.3125 C1.47681641 10.19357422 1.51613281 11.07464844 1.55664062 11.98242188 C1.59853516 12.82998047 1.64042969 13.67753906 1.68359375 14.55078125 C1.72025146 15.33106689 1.75690918 16.11135254 1.79467773 16.9152832 C1.94125263 19.19329101 1.94125263 19.19329101 3 22 C4.65 21.67 6.3 21.34 8 21 C7.67 22.32 7.34 23.64 7 25 C5.68 25.33 4.36 25.66 3 26 C-0.96742243 21.13704389 -0.34322378 16.13295409 -0.1875 10.1875 C-0.17396484 9.20845703 -0.16042969 8.22941406 -0.14648438 7.22070312 C-0.11125312 4.81323375 -0.06199265 2.40690436 0 0 Z " fill="#FEF3C9" transform="translate(197,139)"/>
<path d="M0 0 C-3.22791555 2.1519437 -4.28400809 2.20086443 -8 2 C-7.67 2.721875 -7.34 3.44375 -7 4.1875 C-5.99396471 7.01697427 -5.83022598 9.02895466 -6 12 C-9.53790403 8.30827405 -9.59115883 4.90609405 -10 0 C-6.33694766 -0.74926071 -3.57644848 -1.2380014 0 0 Z " fill="#F8EABD" transform="translate(384,301)"/>
<path d="M0 0 C2.475 0.99 2.475 0.99 5 2 C5 10.58 5 19.16 5 28 C4.67 28 4.34 28 4 28 C3.67 20.08 3.34 12.16 3 4 C1.68 3.67 0.36 3.34 -1 3 C-0.67 2.01 -0.34 1.02 0 0 Z " fill="#FBEDC1" transform="translate(201,132)"/>
<path d="M0 0 C0 0.99 0 1.98 0 3 C1.32 3.33 2.64 3.66 4 4 C-2.625 7.875 -2.625 7.875 -6 9 C-6.33 8.01 -6.66 7.02 -7 6 C-5.35 6 -3.7 6 -2 6 C-2 5.01 -2 4.02 -2 3 C-2.99 2.67 -3.98 2.34 -5 2 C-2 0 -2 0 0 0 Z " fill="#DF9823" transform="translate(392,290)"/>
<path d="M0 0 C4.05606165 0.46800711 7.46588679 0.87953208 11 3 C9 5 9 5 7.0546875 5.1953125 C5.03645833 5.13020833 3.01822917 5.06510417 1 5 C0.67 3.35 0.34 1.7 0 0 Z " fill="#E1E4CE" transform="translate(350,232)"/>
<path d="M0 0 C3.63 0.66 7.26 1.32 11 2 C11 2.33 11 2.66 11 3 C9.35 3.33 7.7 3.66 6 4 C6 5.32 6 6.64 6 8 C5.01 8.33 4.02 8.66 3 9 C3 7.68 3 6.36 3 5 C2.34 5 1.68 5 1 5 C0.67 3.35 0.34 1.7 0 0 Z " fill="#2C4A2F" transform="translate(365,200)"/>
<path d="M0 0 C3.25543229 0.34879632 4.01873107 1.02133261 6.25 3.5625 C7.11625 4.7690625 7.11625 4.7690625 8 6 C7.01 6 6.02 6 5 6 C4.67 5.34 4.34 4.68 4 4 C3.01 3.67 2.02 3.34 1 3 C1 3.66 1 4.32 1 5 C1.66 5 2.32 5 3 5 C3.33 6.65 3.66 8.3 4 10 C1.4375 7.8125 1.4375 7.8125 -1 5 C-0.8125 2.1875 -0.8125 2.1875 0 0 Z " fill="#D69A3A" transform="translate(175,148)"/>
<path d="M0 0 C2.01822917 0.06510417 4.03645833 0.13020833 6.0546875 0.1953125 C6.3846875 0.8553125 6.7146875 1.5153125 7.0546875 2.1953125 C6.3121875 2.1128125 5.5696875 2.0303125 4.8046875 1.9453125 C1.23419283 2.26990292 0.45231004 3.64300463 -1.9453125 6.1953125 C-4.1953125 6.9453125 -4.1953125 6.9453125 -5.9453125 7.1953125 C-3.42094902 0.34346878 -3.42094902 0.34346878 0 0 Z " fill="#F6E7B9" transform="translate(309.9453125,271.8046875)"/>
<path d="M0 0 C0.99 0.99 1.98 1.98 3 3 C2.360625 3.886875 1.72125 4.77375 1.0625 5.6875 C-0.80829757 8.69211428 -1.59423966 10.5510371 -2 14 C-2.99 14 -3.98 14 -5 14 C-5.25 11.1875 -5.25 11.1875 -5 8 C-3.70264493 6.95374591 -2.36733028 5.95298777 -1 5 C-0.1957792 2.40144267 -0.1957792 2.40144267 0 0 Z " fill="#F7EBC6" transform="translate(217,151)"/>
<path d="M0 0 C3.53233755 1.17744585 3.86308075 1.95605641 5.6875 5.0625 C6.12449219 5.79597656 6.56148438 6.52945313 7.01171875 7.28515625 C7.33785156 7.85105469 7.66398437 8.41695312 8 9 C6.02 9.99 6.02 9.99 4 11 C3.32880451 9.5437455 2.66318193 8.08492133 2 6.625 C1.62875 5.81289062 1.2575 5.00078125 0.875 4.1640625 C0 2 0 2 0 0 Z " fill="#485944" transform="translate(272,175)"/>
<path d="M0 0 C0.66 0 1.32 0 2 0 C0.79618552 2.49361571 -0.45428722 4.68143083 -2 7 C-2.24246783 10.20379124 -2.24246783 10.20379124 -2.125 13.6875 C-2.10695312 14.86699219 -2.08890625 16.04648437 -2.0703125 17.26171875 C-2.04710937 18.16535156 -2.02390625 19.06898438 -2 20 C-2.66 20 -3.32 20 -4 20 C-4.22245975 17.75135275 -4.42746557 15.50097377 -4.625 13.25 C-4.74101562 11.99703125 -4.85703125 10.7440625 -4.9765625 9.453125 C-4.99888599 6.16413097 -4.77961002 4.68979224 -3 2 C-2.01 2 -1.02 2 0 2 C0 1.34 0 0.68 0 0 Z " fill="#F4E0AD" transform="translate(227,302)"/>
<path d="M0 0 C2.64 0 5.28 0 8 0 C7.67 1.65 7.34 3.3 7 5 C4.03 5 1.06 5 -2 5 C-0.68 4.67 0.64 4.34 2 4 C2 3.01 2 2.02 2 1 C1.34 0.67 0.68 0.34 0 0 Z " fill="#2B4B2F" transform="translate(307,237)"/>
<path d="M0 0 C-1.23924145 4.95696581 -2.78577758 7.11658466 -7 10 C-6.65125309 4.59442287 -6.65125309 4.59442287 -6 2 C-3.81734379 0.31020164 -2.72785349 0 0 0 Z " fill="#DC9523" transform="translate(403,283)"/>
<path d="M0 0 C0.66 0 1.32 0 2 0 C3.26237731 2.52475462 3.09856404 4.31200466 3.0625 7.125 C3.05347656 8.03507812 3.04445313 8.94515625 3.03515625 9.8828125 C3.02355469 10.58148438 3.01195312 11.28015625 3 12 C1.35 12.33 -0.3 12.66 -2 13 C-1.67257812 12.43796875 -1.34515625 11.8759375 -1.0078125 11.296875 C0.11785494 8.73140036 0.2068111 7.03157723 0.125 4.25 C0.10695313 3.45078125 0.08890625 2.6515625 0.0703125 1.828125 C0.04710937 1.22484375 0.02390625 0.6215625 0 0 Z " fill="#F9EAC5" transform="translate(270,263)"/>
<path d="M0 0 C6.5705166 -0.24794402 12.56971459 0.67611771 19 2 C19 2.33 19 2.66 19 3 C13.06 3.495 13.06 3.495 7 4 C7 3.01 7 2.02 7 1 C4.69 1 2.38 1 0 1 C0 0.67 0 0.34 0 0 Z " fill="#4C644C" transform="translate(291,192)"/>
<path d="M0 0 C4.875 0.875 4.875 0.875 6 2 C6.03055066 5.06728639 5.71990667 8.01829701 5 11 C2.9375 13.0625 2.9375 13.0625 1 14 C1.33 12.68 1.66 11.36 2 10 C2.66 10 3.32 10 4 10 C3.67 7.03 3.34 4.06 3 1 C2.01 0.67 1.02 0.34 0 0 Z " fill="#D09F41" transform="translate(205,314)"/>
<path d="M0 0 C0.33 0 0.66 0 1 0 C1.09765625 6.15234375 1.09765625 6.15234375 1 8 C0.67 8.33 0.34 8.66 0 9 C-0.04063832 10.66617115 -0.042721 12.33388095 0 14 C1.65 14.33 3.3 14.66 5 15 C2.35261084 16.4606285 1.10551666 17 -2 17 C-2.25287193 10.93107371 -1.69832609 5.83799592 0 0 Z " fill="#F7E5B3" transform="translate(375,275)"/>
<path d="M0 0 C0.33 0.99 0.66 1.98 1 3 C-0.21484375 4.82421875 -0.21484375 4.82421875 -1.9375 6.6875 C-2.50339844 7.31011719 -3.06929688 7.93273437 -3.65234375 8.57421875 C-4.09707031 9.04472656 -4.54179687 9.51523438 -5 10 C-5.95287489 6.98041673 -6.14972335 6.32190521 -4.75 3.3125 C-3 1 -3 1 0 0 Z " fill="#354F33" transform="translate(347,185)"/>
<path d="M0 0 C0.99 0 1.98 0 3 0 C3 0.66 3 1.32 3 2 C3.99 2 4.98 2 6 2 C6 2.66 6 3.32 6 4 C11.94 4.99 11.94 4.99 18 6 C18 6.33 18 6.66 18 7 C12.23247651 7.34605141 7.9818895 7.32125966 3 4 C1.125 1.8125 1.125 1.8125 0 0 Z " fill="#DFAC54" transform="translate(324,325)"/>
<path d="M0 0 C1.32 0.66 2.64 1.32 4 2 C1.525 7.94 1.525 7.94 -1 14 C-1.98612849 10.05548603 -1.91655666 8.56813566 -1.0625 4.75 C-0.86785156 3.85796875 -0.67320312 2.9659375 -0.47265625 2.046875 C-0.31667969 1.37140625 -0.16070312 0.6959375 0 0 Z " fill="#456044" transform="translate(161,240)"/>
<path d="M0 0 C-8.261959 4.59225513 -8.261959 4.59225513 -13 4 C-10.72674319 1.28957842 -9.40421209 0.10723994 -5.9375 -0.8125 C-3 -1 -3 -1 0 0 Z " fill="#F8EBC5" transform="translate(403,314)"/>
<path d="M0 0 C0.66 1.32 1.32 2.64 2 4 C1.34 4.66 0.68 5.32 0 6 C-0.103125 6.66 -0.20625 7.32 -0.3125 8 C-0.539375 8.66 -0.76625 9.32 -1 10 C-2.65 10.66 -4.3 11.32 -6 12 C-4.02 8.04 -2.04 4.08 0 0 Z " fill="#E0E2D0" transform="translate(226,277)"/>
<path d="M0 0 C0.66 0.33 1.32 0.66 2 1 C0.1047083 3.21117365 -1.39593904 4.19392933 -4.0625 5.5 C-7.23025749 6.81589255 -7.23025749 6.81589255 -9 10 C-9.66 10 -10.32 10 -11 10 C-9.43989422 5.78771439 -6.5154607 3.65453155 -3 1 C-2.01 0.67 -1.02 0.34 0 0 Z " fill="#D59D39" transform="translate(314,257)"/>
<path d="M0 0 C0.66 0 1.32 0 2 0 C2 0.99 2 1.98 2 3 C2.66 3 3.32 3 4 3 C4 3.99 4 4.98 4 6 C4.66 6 5.32 6 6 6 C5.67 6.99 5.34 7.98 5 9 C2.69 8.01 0.38 7.02 -2 6 C-1.34 5.67 -0.68 5.34 0 5 C0 3.35 0 1.7 0 0 Z " fill="#405A40" transform="translate(356,227)"/>
<path d="M0 0 C-1.875 4.75 -1.875 4.75 -3 7 C-3.66 7 -4.32 7 -5 7 C-4.67 5.02 -4.34 3.04 -4 1 C-4.99 0.67 -5.98 0.34 -7 0 C-3.86650268 -1.04449911 -3.01031744 -0.93423645 0 0 Z " fill="#E4E7D4" transform="translate(298,139)"/>
<path d="M0 0 C0.66 0.33 1.32 0.66 2 1 C0.75 3.9375 0.75 3.9375 -1 7 C-3.1875 7.875 -3.1875 7.875 -5 8 C-5.33 7.01 -5.66 6.02 -6 5 C-5.67 4.34 -5.34 3.68 -5 3 C-3.68 3 -2.36 3 -1 3 C-0.67 2.01 -0.34 1.02 0 0 Z " fill="#2B4D2F" transform="translate(304,132)"/>
<path d="M0 0 C-3.27301919 2.96909598 -5.38065762 3.34354794 -9.75 3.1875 C-10.73484375 3.16042969 -11.7196875 3.13335937 -12.734375 3.10546875 C-13.48203125 3.07066406 -14.2296875 3.03585937 -15 3 C-10.38649226 -0.07567183 -5.44961357 -0.16513981 0 0 Z " fill="#DB972E" transform="translate(349,328)"/>
<path d="M0 0 C1.79275866 3.11910856 2.34290718 5.67682428 2.625 9.25 C2.69976562 10.14203125 2.77453125 11.0340625 2.8515625 11.953125 C2.92503906 12.96632813 2.92503906 12.96632813 3 14 C1.51171875 12.85546875 1.51171875 12.85546875 0 11 C-0.29296875 8.30078125 -0.29296875 8.30078125 -0.1875 5.3125 C-0.16042969 4.31863281 -0.13335937 3.32476562 -0.10546875 2.30078125 C-0.07066406 1.54152344 -0.03585938 0.78226562 0 0 Z " fill="#DC972D" transform="translate(224,309)"/>
<path d="M0 0 C4.75 1.875 4.75 1.875 7 3 C8.37097852 6.56454416 8.07243154 10.23355995 8 14 C7.67 14 7.34 14 7 14 C6.773125 12.80375 6.54625 11.6075 6.3125 10.375 C5.2051224 5.83232692 3.19168889 3.35967251 0 0 Z " fill="#D99D37" transform="translate(247,301)"/>
<path d="M0 0 C1.32 0.33 2.64 0.66 4 1 C3.67 5.29 3.34 9.58 3 14 C2.01 14.33 1.02 14.66 0 15 C0.165 14.484375 0.33 13.96875 0.5 13.4375 C1.42606851 8.92291602 1.41003609 4.40636279 0 0 Z " fill="#D9A036" transform="translate(388,269)"/>
<path d="M0 0 C2.31 0 4.62 0 7 0 C4.33333333 2.66666667 1.66666667 5.33333333 -1 8 C-1.125 2.25 -1.125 2.25 0 0 Z " fill="#F8EABA" transform="translate(303,259)"/>
<path d="M0 0 C0.33 0 0.66 0 1 0 C1.66 3.96 2.32 7.92 3 12 C2.01 12 1.02 12 0 12 C-2.21538462 5.72307692 -2.21538462 5.72307692 -1.125 2.0625 C-0.75375 1.381875 -0.3825 0.70125 0 0 Z " fill="#3E583A" transform="translate(70,252)"/>
<path d="M0 0 C0 5.94 0 11.88 0 18 C-0.33 18 -0.66 18 -1 18 C-1.06058594 17.19175781 -1.12117187 16.38351563 -1.18359375 15.55078125 C-1.26738281 14.48214844 -1.35117188 13.41351563 -1.4375 12.3125 C-1.51871094 11.25675781 -1.59992188 10.20101562 -1.68359375 9.11328125 C-1.96451681 6.34913703 -2.40156852 3.71054259 -3 1 C-1 0 -1 0 0 0 Z " fill="#4E6848" transform="translate(149,229)"/>
<path d="M0 0 C0.66 0.33 1.32 0.66 2 1 C2 2.32 2 3.64 2 5 C1.01 5 0.02 5 -1 5 C-1 5.66 -1 6.32 -1 7 C-2.32 7 -3.64 7 -5 7 C-3.70700306 4.11562221 -2.34058637 2.12780579 0 0 Z " fill="#E79B1B" transform="translate(226,150)"/>
<path d="M0 0 C-1.47692308 5.66153846 -1.47692308 5.66153846 -4.125 7.375 C-5.053125 7.684375 -5.053125 7.684375 -6 8 C-5.6875 5.125 -5.6875 5.125 -5 2 C-2 0 -2 0 0 0 Z " fill="#DE9823" transform="translate(270,319)"/>
<path d="M0 0 C-1.09068668 3.77545388 -1.9083091 6.47043472 -5 9 C-5.1875 5.625 -5.1875 5.625 -5 2 C-2 0 -2 0 0 0 Z " fill="#DF9B2E" transform="translate(457,314)"/>
<path d="M0 0 C0.33 0 0.66 0 1 0 C1 6.27 1 12.54 1 19 C0.67 19 0.34 19 0 19 C-0.06058594 18.09636719 -0.12117188 17.19273437 -0.18359375 16.26171875 C-0.26738281 15.08222656 -0.35117188 13.90273438 -0.4375 12.6875 C-0.51871094 11.51574219 -0.59992188 10.34398437 -0.68359375 9.13671875 C-0.8867371 5.97409042 -0.8867371 5.97409042 -2 3 C-1.34 2.01 -0.68 1.02 0 0 Z " fill="#D3DCC6" transform="translate(118,285)"/>
<path d="M0 0 C2.97 0.495 2.97 0.495 6 1 C5.67 1.99 5.34 2.98 5 4 C-1.0546875 4.9765625 -1.0546875 4.9765625 -3 5 C-3.66 4.34 -4.32 3.68 -5 3 C-3.02 3 -1.04 3 1 3 C0.67 2.01 0.34 1.02 0 0 Z " fill="#365436" transform="translate(336,224)"/>
<path d="M0 0 C2.475 0.99 2.475 0.99 5 2 C4.67 3.65 4.34 5.3 4 7 C1.69 6.67 -0.62 6.34 -3 6 C-3 5.67 -3 5.34 -3 5 C-1.02 5 0.96 5 3 5 C2.2575 4.319375 2.2575 4.319375 1.5 3.625 C0 2 0 2 0 0 Z " fill="#D7A247" transform="translate(226,178)"/>
<path d="M0 0 C1.485 0.99 1.485 0.99 3 2 C3.3125 5 3.3125 5 3 8 C2.34 8.66 1.68 9.32 1 10 C-0.1577506 6.52674819 -0.06866652 3.63932552 0 0 Z " fill="#2E5432" transform="translate(251,162)"/>
<path d="M0 0 C1.485 0.7115625 1.485 0.7115625 3 1.4375 C6.99189495 3.16813748 10.68114582 3.62115314 15 4 C15 4.33 15 4.66 15 5 C13.06318839 5.08107583 11.1254066 5.13922475 9.1875 5.1875 C8.10855469 5.22230469 7.02960938 5.25710938 5.91796875 5.29296875 C3 5 3 5 1.11328125 3.61328125 C0 2 0 2 0 0 Z " fill="#FBF1CB" transform="translate(326,328)"/>
<path d="M0 0 C0 0.66 0 1.32 0 2 C-1.4160599 2.79275148 -2.83287553 3.58415312 -4.25 4.375 C-5.03890625 4.81585938 -5.8278125 5.25671875 -6.640625 5.7109375 C-8.73914197 6.85747823 -10.8536077 7.94649552 -13 9 C-10.03160376 4.72550941 -5.61996393 0 0 0 Z " fill="#3A5336" transform="translate(76,317)"/>
<path d="M0 0 C1.13508688 3.3515741 0.87309359 5.35675676 -0.25 8.6875 C-0.50265625 9.47511719 -0.7553125 10.26273437 -1.015625 11.07421875 C-2 13 -2 13 -5 14 C-4.731875 13.360625 -4.46375 12.72125 -4.1875 12.0625 C-2.64635858 8.08797739 -1.32390688 4.05115505 0 0 Z " fill="#F7E7BA" transform="translate(461,304)"/>
<path d="M0 0 C1.65 0 3.3 0 5 0 C2.33333333 2.66666667 -0.33333333 5.33333333 -3 8 C-3.33 6.68 -3.66 5.36 -4 4 C-2.68 3.67 -1.36 3.34 0 3 C0 2.01 0 1.02 0 0 Z " fill="#F6E8BF" transform="translate(235,258)"/>
<path d="M0 0 C-1.423125 0.680625 -1.423125 0.680625 -2.875 1.375 C-6.00313679 2.80238254 -6.00313679 2.80238254 -8 5 C-8.99 4.67 -9.98 4.34 -11 4 C-11 3.34 -11 2.68 -11 2 C-3.57142857 -1.57142857 -3.57142857 -1.57142857 0 0 Z " fill="#E1E6D0" transform="translate(295,198)"/>
<path d="M0 0 C0.33 0.99 0.66 1.98 1 3 C-2.97610294 8.68014706 -2.97610294 8.68014706 -6.17578125 9.6796875 C-7.07876953 9.83824219 -7.07876953 9.83824219 -8 10 C-7.04367001 8.70684939 -6.08486149 7.41553147 -5.125 6.125 C-4.59132812 5.40570313 -4.05765625 4.68640625 -3.5078125 3.9453125 C-2 2 -2 2 0 0 Z " fill="#F7E8BA" transform="translate(229,153)"/>
<path d="M0 0 C0.33 0 0.66 0 1 0 C1.99 4.62 2.98 9.24 4 14 C3.34 14 2.68 14 2 14 C-0.28062828 10.57905758 -0.21925007 9.31812778 -0.125 5.3125 C-0.10695313 4.31863281 -0.08890625 3.32476562 -0.0703125 2.30078125 C-0.04710937 1.54152344 -0.02390625 0.78226562 0 0 Z " fill="#FAEFC3" transform="translate(318,308)"/>
<path d="M0 0 C2.475 0.495 2.475 0.495 5 1 C5.33 1.99 5.66 2.98 6 4 C6.66 4 7.32 4 8 4 C8 4.99 8 5.98 8 7 C4.2047869 5.50902342 2.38957269 3.24299151 0 0 Z " fill="#DBA23C" transform="translate(237,292)"/>
<path d="M0 0 C0.33 0.99 0.66 1.98 1 3 C-2.21182149 4.90608098 -4.53882603 5.22266247 -8.25 5.125 C-9.14203125 5.10695313 -10.0340625 5.08890625 -10.953125 5.0703125 C-11.96632812 5.03550781 -11.96632812 5.03550781 -13 5 C-13 4.67 -13 4.34 -13 4 C-12.31292969 3.87882812 -11.62585938 3.75765625 -10.91796875 3.6328125 C-9.56638672 3.38144531 -9.56638672 3.38144531 -8.1875 3.125 C-7.29417969 2.96257812 -6.40085938 2.80015625 -5.48046875 2.6328125 C-2.77272154 2.08811551 -2.77272154 2.08811551 0 0 Z " fill="#D79A2E" transform="translate(253,317)"/>
<path d="M0 0 C0.66 0 1.32 0 2 0 C1.57405412 1.44096586 1.13373367 2.87768712 0.6875 4.3125 C0.44386719 5.11300781 0.20023437 5.91351563 -0.05078125 6.73828125 C-1.04182023 9.09964573 -2.08074943 10.33879993 -4 12 C-3.67 10.35 -3.34 8.7 -3 7 C-2.34 7 -1.68 7 -1 7 C-1.020625 6.030625 -1.04125 5.06125 -1.0625 4.0625 C-1 1 -1 1 0 0 Z " fill="#F7E7B8" transform="translate(450,303)"/>
<path d="M0 0 C-1.1875 2 -1.1875 2 -3 4 C-5.6875 4.25 -5.6875 4.25 -8 4 C-8.33 3.34 -8.66 2.68 -9 2 C-3.375 -1.125 -3.375 -1.125 0 0 Z " fill="#3F5B3C" transform="translate(107,280)"/>
<path d="M0 0 C1.58179615 -0.10867302 3.16577153 -0.18589827 4.75 -0.25 C5.63171875 -0.29640625 6.5134375 -0.3428125 7.421875 -0.390625 C10 0 10 0 14 4 C9.38 3.01 4.76 2.02 0 1 C0 0.67 0 0.34 0 0 Z " fill="#D9A34C" transform="translate(208,179)"/>
<path d="M0 0 C0.99 0.33 1.98 0.66 3 1 C1.02 3.31 -0.96 5.62 -3 8 C-3.66 7.01 -4.32 6.02 -5 5 C-4.34 5 -3.68 5 -3 5 C-3 4.34 -3 3.68 -3 3 C-2.01 3 -1.02 3 0 3 C0 2.01 0 1.02 0 0 Z " fill="#F8EDC3" transform="translate(407,305)"/>
<path d="M0 0 C0.99 0.33 1.98 0.66 3 1 C3 1.66 3 2.32 3 3 C3.99 3.33 4.98 3.66 6 4 C5.34 5.32 4.68 6.64 4 8 C1.84622436 5.37801226 0.59927826 3.35595828 0 0 Z " fill="#395637" transform="translate(42,271)"/>
<path d="M0 0 C0.66 0.33 1.32 0.66 2 1 C2 3.31 2 5.62 2 8 C1.01 8.33 0.02 8.66 -1 9 C-0.67 6.03 -0.34 3.06 0 0 Z " fill="#445D3F" transform="translate(120,247)"/>
<path d="M0 0 C0.66 0.33 1.32 0.66 2 1 C-0.06756277 3.7972908 -1.14440371 4.02692273 -4.6875 4.6875 C-5.780625 4.790625 -6.87375 4.89375 -8 5 C-5.31158141 2.74754119 -3.35358125 1.11786042 0 0 Z " fill="#455C43" transform="translate(189,206)"/>
<path d="M0 0 C-2.85478326 1.90318884 -4.41941308 2.4619099 -7.6875 3.125 C-8.49574219 3.29257813 -9.30398437 3.46015625 -10.13671875 3.6328125 C-10.75160156 3.75398437 -11.36648437 3.87515625 -12 4 C-12 3.34 -12 2.68 -12 2 C-8.09971775 -0.60018816 -4.52565431 -0.15085514 0 0 Z " fill="#D69C34" transform="translate(191,179)"/>
<path d="M0 0 C0.99 0 1.98 0 3 0 C2.67 1.65 2.34 3.3 2 5 C0.68 5 -0.64 5 -2 5 C-1.125 1.125 -1.125 1.125 0 0 Z " fill="#E59F22" transform="translate(218,159)"/>
<path d="M0 0 C5.53846154 0.49230769 5.53846154 0.49230769 7.875 3.0625 C8.431875 4.0215625 8.431875 4.0215625 9 5 C8.67 5.66 8.34 6.32 8 7 C7.4225 6.34 6.845 5.68 6.25 5 C4.00346023 2.55709077 4.00346023 2.55709077 0 3 C0 2.01 0 1.02 0 0 Z " fill="#F6ECBE" transform="translate(174,146)"/>
<path d="M0 0 C0.66 0.33 1.32 0.66 2 1 C2.625 3.0625 2.625 3.0625 3 5 C1.35 5.33 -0.3 5.66 -2 6 C-1.125 1.125 -1.125 1.125 0 0 Z " fill="#2F4B31" transform="translate(390,145)"/>
<path d="M0 0 C0.66 0.33 1.32 0.66 2 1 C0.70700306 3.88437779 -0.65941363 5.87219421 -3 8 C-3.33 7.01 -3.66 6.02 -4 5 C-3.34 5 -2.68 5 -2 5 C-1.7834375 4.0409375 -1.7834375 4.0409375 -1.5625 3.0625 C-1 1 -1 1 0 0 Z " fill="#3B543A" transform="translate(132,348)"/>
<path d="M0 0 C0.33 0 0.66 0 1 0 C1.125 2.375 1.125 2.375 1 5 C0.34 5.66 -0.32 6.32 -1 7 C-3.125 6.625 -3.125 6.625 -5 6 C-3.35830472 3.97945196 -1.69088222 1.97956942 0 0 Z " fill="#F9EBC2" transform="translate(455,319)"/>
<path d="M0 0 C0 0.99 0 1.98 0 3 C-0.99 3 -1.98 3 -3 3 C-3.103125 3.639375 -3.20625 4.27875 -3.3125 4.9375 C-3.539375 5.618125 -3.76625 6.29875 -4 7 C-4.99 7.33 -5.98 7.66 -7 8 C-4.18918919 0 -4.18918919 0 0 0 Z " fill="#425B3E" transform="translate(210,226)"/>
<path d="M0 0 C0.66 1.32 1.32 2.64 2 4 C1.01 5.32 0.02 6.64 -1 8 C-1.99 7.67 -2.98 7.34 -4 7 C-2.68 4.69 -1.36 2.38 0 0 Z " fill="#3B553A" transform="translate(56,180)"/>
<path d="M0 0 C-2.5654594 2.5654594 -4.47686668 2.54046087 -8 3 C-7.67 2.01 -7.34 1.02 -7 0 C-3.86650268 -1.04449911 -3.01031744 -0.93423645 0 0 Z " fill="#4A6043" transform="translate(113,368)"/>
<path d="M0 0 C0.625 1.875 0.625 1.875 1 4 C0.34 4.66 -0.32 5.32 -1 6 C-1.33 5.67 -1.66 5.34 -2 5 C-2.66 6.32 -3.32 7.64 -4 9 C-4.25 6.1875 -4.25 6.1875 -4 3 C-2 1.125 -2 1.125 0 0 Z " fill="#F4E2B1" transform="translate(240,309)"/>
<path d="M0 0 C2.31 0 4.62 0 7 0 C5.35 1.65 3.7 3.3 2 5 C0 1.125 0 1.125 0 0 Z " fill="#F6E9BE" transform="translate(361,260)"/>
<path d="M0 0 C0.99 0.33 1.98 0.66 3 1 C0.375 5.875 0.375 5.875 -3 7 C-1.125 2.25 -1.125 2.25 0 0 Z " fill="#3D563E" transform="translate(170,221)"/>
<path d="M0 0 C0.33 0 0.66 0 1 0 C0.67 2.97 0.34 5.94 0 9 C-0.66 8.67 -1.32 8.34 -2 8 C-1.125 1.125 -1.125 1.125 0 0 Z " fill="#4A6245" transform="translate(119,190)"/>
<path d="M0 0 C0.99 0.33 1.98 0.66 3 1 C-0.5 5.875 -0.5 5.875 -5 7 C-3.35 4.69 -1.7 2.38 0 0 Z " fill="#3E5739" transform="translate(62,173)"/>
<path d="M0 0 C0.99 1.485 0.99 1.485 2 3 C3.65 2.67 5.3 2.34 7 2 C6.67 3.32 6.34 4.64 6 6 C4.68 6.33 3.36 6.66 2 7 C0 4 0 4 0 0 Z " fill="#F7E9BA" transform="translate(198,158)"/>
<path d="M0 0 C0.66 0.33 1.32 0.66 2 1 C0.35 2.98 -1.3 4.96 -3 7 C-3.66 5.68 -4.32 4.36 -5 3 C-3.35 2.67 -1.7 2.34 0 2 C0 1.34 0 0.68 0 0 Z " fill="#DAA135" transform="translate(225,155)"/>
<path d="M0 0 C-3.42689636 1.14229879 -5.61102218 0.90861076 -9.1875 0.5625 C-10.81751953 0.40974609 -10.81751953 0.40974609 -12.48046875 0.25390625 C-13.72763672 0.12822266 -13.72763672 0.12822266 -15 0 C-15 -0.33 -15 -0.66 -15 -1 C-13.25181409 -1.22304441 -11.50129677 -1.4278645 -9.75 -1.625 C-8.77546875 -1.74101563 -7.8009375 -1.85703125 -6.796875 -1.9765625 C-3.86570607 -2.00112537 -2.45471036 -1.5312717 0 0 Z " fill="#D5DAC5" transform="translate(340,123)"/>
<path d="M0 0 C0.66 0 1.32 0 2 0 C2.66 2.97 3.32 5.94 4 9 C0.06153846 5.67692308 0.06153846 5.67692308 -0.25 2.25 C-0.1675 1.5075 -0.085 0.765 0 0 Z " fill="#D99C33" transform="translate(372,302)"/>
<path d="M0 0 C0 0.99 0 1.98 0 3 C-3.13498292 4.85776765 -5.37471432 5.20140476 -9 5 C-6.08596738 3.05731159 -3.14191424 1.53604696 0 0 Z " fill="#F4E5B2" transform="translate(393,295)"/>
<path d="M0 0 C2.25245881 2.68841859 3.88213958 4.64641875 5 8 C3.66666667 8 2.33333333 8 1 8 C0.67 5.36 0.34 2.72 0 0 Z " fill="#F5E8BA" transform="translate(230,282)"/>
<path d="M0 0 C1.65 1.65 3.3 3.3 5 5 C4.67 5.99 4.34 6.98 4 8 C3.34 8 2.68 8 2 8 C1.34 5.36 0.68 2.72 0 0 Z " fill="#D3932A" transform="translate(333,261)"/>
<path d="M0 0 C0.66 0.33 1.32 0.66 2 1 C1.25 6.75 1.25 6.75 -1 9 C-2.0326802 6.21176345 -2.04509293 5.1322726 -1.0625 2.25 C-0.711875 1.5075 -0.36125 0.765 0 0 Z " fill="#3B573C" transform="translate(118,257)"/>
<path d="M0 0 C2.64 0.33 5.28 0.66 8 1 C8.66 2.65 9.32 4.3 10 6 C6.7 4.35 3.4 2.7 0 1 C0 0.67 0 0.34 0 0 Z " fill="#F5E3AE" transform="translate(325,256)"/>
<path d="M0 0 C0.66 0 1.32 0 2 0 C0.25 5.75 0.25 5.75 -2 8 C-2.33 7.34 -2.66 6.68 -3 6 C-1.44444444 1.44444444 -1.44444444 1.44444444 0 0 Z " fill="#ECEDD9" transform="translate(166,224)"/>
<path d="M0 0 C1.32 0.33 2.64 0.66 4 1 C2.71034824 2.37562854 1.37310707 3.70766393 0 5 C-0.66 5 -1.32 5 -2 5 C-1.34 3.35 -0.68 1.7 0 0 Z " fill="#344A30" transform="translate(367,192)"/>
<path d="M0 0 C-2 2 -2 2 -3.9453125 2.1953125 C-5.96354167 2.13020833 -7.98177083 2.06510417 -10 2 C-6.19832777 -0.53444815 -4.31588991 -1.33941411 0 0 Z " fill="#F6E8B6" transform="translate(188,182)"/>
<path d="M0 0 C3.63094642 2.64960955 5.89851796 5.01824456 8 9 C6.68 8.34 5.36 7.68 4 7 C4 6.34 4 5.68 4 5 C3.01 4.67 2.02 4.34 1 4 C0.3125 1.9375 0.3125 1.9375 0 0 Z " fill="#F4E8B9" transform="translate(175,155)"/>
<path d="M0 0 C1.32 0.33 2.64 0.66 4 1 C4 1.66 4 2.32 4 3 C4.66 3.33 5.32 3.66 6 4 C5.01 4.99 4.02 5.98 3 7 C2.67 5.35 2.34 3.7 2 2 C1.34 2 0.68 2 0 2 C0 1.34 0 0.68 0 0 Z " fill="#E99418" transform="translate(176,151)"/>
<path d="M0 0 C-4.1795645 2.78637633 -6.14668677 1.79562512 -11 1 C-11 0.67 -11 0.34 -11 0 C-3.57142857 -1.28571429 -3.57142857 -1.28571429 0 0 Z " fill="#F9E7BF" transform="translate(390,332)"/>
<path d="M0 0 C0.66 0 1.32 0 2 0 C2.1875 2.375 2.1875 2.375 2 5 C1.01 5.66 0.02 6.32 -1 7 C-1.04254356 5.00045254 -1.04080783 2.99958364 -1 1 C-0.67 0.67 -0.34 0.34 0 0 Z " fill="#E19828" transform="translate(351,321)"/>
<path d="M0 0 C0.66 0.66 1.32 1.32 2 2 C1.54625 2.5775 1.0925 3.155 0.625 3.75 C-0.84113516 5.7800333 -1.94857784 7.73539843 -3 10 C-3.33 8.35 -3.66 6.7 -4 5 C-3.34 4.67 -2.68 4.34 -2 4 C-0.86649466 1.98330173 -0.86649466 1.98330173 0 0 Z " fill="#F8EAC1" transform="translate(157,316)"/>
<path d="M0 0 C2.31 0.66 4.62 1.32 7 2 C7 2.99 7 3.98 7 5 C3.34683329 3.75023244 2.21934164 3.32901247 0 0 Z " fill="#F5E4B6" transform="translate(378,313)"/>
<path d="M0 0 C2.97 0 5.94 0 9 0 C8.67 0.66 8.34 1.32 8 2 C5.93359375 2.4140625 5.93359375 2.4140625 3.4375 2.625 C2.61121094 2.69976562 1.78492188 2.77453125 0.93359375 2.8515625 C-0.02353516 2.92503906 -0.02353516 2.92503906 -1 3 C-0.67 2.01 -0.34 1.02 0 0 Z " fill="#F9E9BC" transform="translate(201,313)"/>
<path d="M0 0 C2.6875 1.4375 2.6875 1.4375 5 3 C4.67 3.66 4.34 4.32 4 5 C1.69 4.34 -0.62 3.68 -3 3 C-3 2.34 -3 1.68 -3 1 C-2.01 0.67 -1.02 0.34 0 0 Z " fill="#D89A32" transform="translate(313,269)"/>
<path d="M0 0 C-0.639375 0.28875 -1.27875 0.5775 -1.9375 0.875 C-4.15206079 1.82823451 -4.15206079 1.82823451 -5 4 C-6.32 3.01 -7.64 2.02 -9 1 C-6.04335481 -0.4783226 -3.25770263 -0.06032783 0 0 Z " fill="#2D492C" transform="translate(294,223)"/>
<path d="M0 0 C1.32 1.32 2.64 2.64 4 4 C3.34 5.32 2.68 6.64 2 8 C0 6 0 6 -0.125 2.875 C-0.08375 1.92625 -0.0425 0.9775 0 0 Z " fill="#476044" transform="translate(281,185)"/>
<path d="M0 0 C0.66 0 1.32 0 2 0 C1.67 2.31 1.34 4.62 1 7 C0.01 7 -0.98 7 -2 7 C-2.125 4.625 -2.125 4.625 -2 2 C-1.34 1.34 -0.68 0.68 0 0 Z " fill="#FAEDC5" transform="translate(172,177)"/>
<path d="M0 0 C0.66 0 1.32 0 2 0 C4 3 4 3 3.625 5.1875 C3.41875 5.785625 3.2125 6.38375 3 7 C2.01 6.67 1.02 6.34 0 6 C0 4.02 0 2.04 0 0 Z " fill="#F4E8BB" transform="translate(187,158)"/>
	</g>
</svg>
