<?xml version="1.0" encoding="UTF-8"?>
<svg version="1.1" xmlns="http://www.w3.org/2000/svg" width="64" height="64">
<path d="M0 0 C21.12 0 42.24 0 64 0 C64 21.12 64 42.24 64 64 C42.88 64 21.76 64 0 64 C0 42.88 0 21.76 0 0 Z " fill="#2FCB70" transform="translate(0,0)"/>
<path d="M0 0 C20 0 20 0 22.625 0.5625 C23.40875 0.706875 24.1925 0.85125 25 1 C25.33 0.67 25.66 0.34 26 0 C27.49738124 -0.0979057 28.99942892 -0.12974864 30.5 -0.125 C31.3146875 -0.12757812 32.129375 -0.13015625 32.96875 -0.1328125 C35 0 35 0 36 1 C36.04063832 2.66617115 36.042721 4.33388095 36 6 C35.01 4.68 34.02 3.36 33 2 C32.814375 3.2065625 32.814375 3.2065625 32.625 4.4375 C32.41875 5.283125 32.2125 6.12875 32 7 C31.34 7.33 30.68 7.66 30 8 C30.66 8.37125 31.32 8.7425 32 9.125 C34 11 34 11 34.375 14.0625 C34 17 34 17 32 19 C28.375 19.125 28.375 19.125 25 19 C24.505 18.01 24.505 18.01 24 17 C23.34 17.66 22.68 18.32 22 19 C18.20122401 19.35173852 15.85639847 19.52701444 12.5625 17.5 C12.046875 17.005 11.53125 16.51 11 16 C10.608125 16.495 10.21625 16.99 9.8125 17.5 C8 19 8 19 5.5 19.375 C3 19 3 19 1.1875 17.8125 C-0.36678206 15.44017475 -0.22537188 13.77958655 0 11 C-1.98 11 -3.96 11 -6 11 C-6 11.66 -6 12.32 -6 13 C-5.01 13 -4.02 13 -3 13 C-3 13.66 -3 14.32 -3 15 C-3.99 15 -4.98 15 -6 15 C-6 16.32 -6 17.64 -6 19 C-6.99 19 -7.98 19 -9 19 C-9 15.7 -9 12.4 -9 9 C-7.35 9 -5.7 9 -4 9 C-4 8.34 -4 7.68 -4 7 C-5.65 6.67 -7.3 6.34 -9 6 C-9 5.01 -9 4.02 -9 3 C-6.525 3.99 -6.525 3.99 -4 5 C-4 4.34 -4 3.68 -4 3 C-3.01 3 -2.02 3 -1 3 C-0.67 2.01 -0.34 1.02 0 0 Z " fill="#6DD89B" transform="translate(19,24)"/>
<path d="M0 0 C1.47906892 -0.02689216 2.95827483 -0.04634621 4.4375 -0.0625 C5.26121094 -0.07410156 6.08492187 -0.08570312 6.93359375 -0.09765625 C9 0 9 0 10 1 C10.04063832 2.66617115 10.042721 4.33388095 10 6 C9.01 4.68 8.02 3.36 7 2 C6.87625 2.804375 6.7525 3.60875 6.625 4.4375 C6.41875 5.283125 6.2125 6.12875 6 7 C5.01 7.495 5.01 7.495 4 8 C4.66 8.37125 5.32 8.7425 6 9.125 C8 11 8 11 8.375 14.0625 C8 17 8 17 6 19 C2.375 19.125 2.375 19.125 -1 19 C-1.33 18.34 -1.66 17.68 -2 17 C-3.98 17.99 -3.98 17.99 -6 19 C-5.34 18.01 -4.68 17.02 -4 16 C-4.17468344 12.59367293 -4.77228739 11.25531414 -7.0625 8.6875 C-7.701875 8.130625 -8.34125 7.57375 -9 7 C-8.43410156 6.66226562 -7.86820313 6.32453125 -7.28515625 5.9765625 C-6.55167969 5.53054687 -5.81820312 5.08453125 -5.0625 4.625 C-4.33160156 4.18414063 -3.60070313 3.74328125 -2.84765625 3.2890625 C-0.86227728 2.1226016 -0.86227728 2.1226016 0 0 Z " fill="#40CD7C" transform="translate(45,24)"/>
<path d="M0 0 C2.375 -0.125 2.375 -0.125 5 0 C5.66 0.66 6.32 1.32 7 2 C6.67028521 5.29714793 6.3773161 6.6226839 4 9 C1.5 9.25 1.5 9.25 -1 9 C-1.66 8.34 -2.32 7.68 -3 7 C-2.625 4.375 -2.625 4.375 -2 2 C-1.01 3.485 -1.01 3.485 0 5 C2.05925139 5.72382467 2.05925139 5.72382467 4 6 C3.72382467 4.05925139 3.72382467 4.05925139 3 2 C2.01 1.34 1.02 0.68 0 0 Z " fill="#ECF9F2" transform="translate(35,34)"/>
<path d="M0 0 C2.31 0 4.62 0 7 0 C7 0.66 7 1.32 7 2 C5.68 2 4.36 2 3 2 C3 2.66 3 3.32 3 4 C3.99 4 4.98 4 6 4 C6 4.66 6 5.32 6 6 C5.01 6 4.02 6 3 6 C3 7.32 3 8.64 3 10 C2.01 10 1.02 10 0 10 C0 6.7 0 3.4 0 0 Z " fill="#C6EFD8" transform="translate(10,33)"/>
<path d="M0 0 C1.2065625 0.0309375 1.2065625 0.0309375 2.4375 0.0625 C1.4475 0.7225 0.4575 1.3825 -0.5625 2.0625 C-0.5625 3.3825 -0.5625 4.7025 -0.5625 6.0625 C0.7575 6.3925 2.0775 6.7225 3.4375 7.0625 C3.4375 5.7425 3.4375 4.4225 3.4375 3.0625 C4.0975 3.0625 4.7575 3.0625 5.4375 3.0625 C4.5625 7.9375 4.5625 7.9375 3.4375 9.0625 C0.60390458 9.3607732 -1.00035378 9.41852594 -3.4375 7.875 C-4.5625 6.0625 -4.5625 6.0625 -4.3125 3.4375 C-3.25202135 0.07931759 -3.25202135 0.07931759 0 0 Z " fill="#E7F8EF" transform="translate(23.5625,33.9375)"/>
<path d="M0 0 C1.65 0 3.3 0 5 0 C4.01 0.33 3.02 0.66 2 1 C2 2.65 2 4.3 2 6 C3.32 6 4.64 6 6 6 C6.33 4.68 6.66 3.36 7 2 C7.33 2 7.66 2 8 2 C8.125 4.375 8.125 4.375 8 7 C6 9 6 9 2.875 9.125 C1.451875 9.063125 1.451875 9.063125 0 9 C0 6.03 0 3.06 0 0 Z " fill="#EBF9F1" transform="translate(45,34)"/>
<path d="M0 0 C3.375 -0.1875 3.375 -0.1875 7 0 C7.66 0.99 8.32 1.98 9 3 C8.34 4.32 7.68 5.64 7 7 C5.68 7 4.36 7 3 7 C3 5.35 3 3.7 3 2 C2.34 1.67 1.68 1.34 1 1 C1 3.97 1 6.94 1 10 C0.67 10 0.34 10 0 10 C0 6.7 0 3.4 0 0 Z " fill="#91E2B4" transform="translate(44,33)"/>
<path d="M0 0 C1.65 0 3.3 0 5 0 C5.66 1.32 6.32 2.64 7 4 C6.34 4 5.68 4 5 4 C5 5.32 5 6.64 5 8 C3.35 7.67 1.7 7.34 0 7 C0.185625 6.21625 0.37125 5.4325 0.5625 4.625 C1.25962266 2.02910225 1.25962266 2.02910225 0 0 Z " fill="#8FE1B3" transform="translate(22,33)"/>
<path d="M0 0 C1.47906892 -0.02689216 2.95827483 -0.04634621 4.4375 -0.0625 C5.26121094 -0.07410156 6.08492187 -0.08570312 6.93359375 -0.09765625 C9 0 9 0 10 1 C10.04063832 2.66617115 10.042721 4.33388095 10 6 C9.01 4.68 8.02 3.36 7 2 C6.67 3.32 6.34 4.64 6 6 C5.34 6 4.68 6 4 6 C3.67 4.68 3.34 3.36 3 2 C2.67 3.32 2.34 4.64 2 6 C1.34 6 0.68 6 0 6 C0 4.02 0 2.04 0 0 Z " fill="#C4EFD7" transform="translate(45,24)"/>
<path d="M0 0 C1.65 0.33 3.3 0.66 5 1 C4.34 2.98 3.68 4.96 3 7 C1.68 6.34 0.36 5.68 -1 5 C-0.67 3.35 -0.34 1.7 0 0 Z " fill="#BDECD2" transform="translate(32,24)"/>
<path d="M0 0 C1.65 0.33 3.3 0.66 5 1 C4.67 2.65 4.34 4.3 4 6 C2.35 5.67 0.7 5.34 -1 5 C-0.67 3.35 -0.34 1.7 0 0 Z " fill="#C0EDD4" transform="translate(39,24)"/>
<path d="M0 0 C0.66 0.99 1.32 1.98 2 3 C2.99 3.66 3.98 4.32 5 5 C5.33 5.66 5.66 6.32 6 7 C3.625 7.125 3.625 7.125 1 7 C0.34 6.34 -0.32 5.68 -1 5 C-0.625 2.375 -0.625 2.375 0 0 Z " fill="#DBF5E6" transform="translate(33,36)"/>
<path d="M0 0 C0.33 0.66 0.66 1.32 1 2 C1.99 2 2.98 2 4 2 C4 2.66 4 3.32 4 4 C3.01 4 2.02 4 1 4 C1 5.32 1 6.64 1 8 C0.34 8 -0.32 8 -1 8 C-1.125 2.25 -1.125 2.25 0 0 Z " fill="#EEFBF4" transform="translate(12,35)"/>
</svg>
