<?xml version="1.0" encoding="UTF-8"?>
<svg version="1.1" xmlns="http://www.w3.org/2000/svg" width="64" height="64">
<path d="M0 0 C21.12 0 42.24 0 64 0 C64 21.12 64 42.24 64 64 C42.88 64 21.76 64 0 64 C0 42.88 0 21.76 0 0 Z " fill="#FCFDFD" transform="translate(0,0)"/>
<path d="M0 0 C1.98 0 3.96 0 6 0 C6.31467723 9.35290662 5.16187239 17.19192692 2 26 C-4.43681228 25.48914188 -9.95942424 24.27057103 -16 22 C-16.33 19.36 -16.66 16.72 -17 14 C-14.04335481 12.5216774 -11.25770263 12.93967217 -8 13 C-8.66 9.37 -9.32 5.74 -10 2 C-6.535 1.505 -6.535 1.505 -3 1 C-2.34 2.98 -1.68 4.96 -1 7 C-0.67 4.69 -0.34 2.38 0 0 Z " fill="#41BCB6" transform="translate(37,15)"/>
<path d="M0 0 C0.66 0.66 1.32 1.32 2 2 C3.32 2 4.64 2 6 2 C6 1.34 6 0.68 6 0 C8.375 -0.1875 8.375 -0.1875 11 0 C11.66 0.99 12.32 1.98 13 3 C13.66 2.67 14.32 2.34 15 2 C14.67 3.65 14.34 5.3 14 7 C8.39 7 2.78 7 -3 7 C-3.33 5.68 -3.66 4.36 -4 3 C-2.68 2.67 -1.36 2.34 0 2 C0 1.34 0 0.68 0 0 Z " fill="#9ADBD8" transform="translate(17,43)"/>
<path d="M0 0 C3.96 0 7.92 0 12 0 C12.33 1.32 12.66 2.64 13 4 C9.92677456 4.91058531 7.19902639 5.08886184 4 5 C3.67 3.68 3.34 2.36 3 1 C2.34 1 1.68 1 1 1 C0.67 1.99 0.34 2.98 0 4 C0 2.68 0 1.36 0 0 Z " fill="#81D2CE" transform="translate(38,45)"/>
<path d="M0 0 C0.66 0.66 1.32 1.32 2 2 C3.32 2 4.64 2 6 2 C5.67 3.65 5.34 5.3 5 7 C2.36 7 -0.28 7 -3 7 C-3.33 5.68 -3.66 4.36 -4 3 C-2.68 2.67 -1.36 2.34 0 2 C0 1.34 0 0.68 0 0 Z " fill="#8AD6D2" transform="translate(17,43)"/>
<path d="M0 0 C1.32 0 2.64 0 4 0 C3.67 1.65 3.34 3.3 3 5 C2.01 4.67 1.02 4.34 0 4 C0 2.68 0 1.36 0 0 Z " fill="#70CCC8" transform="translate(19,45)"/>
</svg>
