<?xml version="1.0" encoding="UTF-8"?>
<svg version="1.1" xmlns="http://www.w3.org/2000/svg" width="64" height="64">
<path d="M0 0 C21.12 0 42.24 0 64 0 C64 21.12 64 42.24 64 64 C42.88 64 21.76 64 0 64 C0 42.88 0 21.76 0 0 Z " fill="#03CCC0" transform="translate(0,0)"/>
<path d="M0 0 C2.31 0 4.62 0 7 0 C6.7662248 2.66105818 6.52605868 5.32111878 6.2734375 7.98046875 C6.10737436 9.81428033 5.96121056 11.65023359 5.8515625 13.48828125 C5.4531889 18.98014588 4.03691152 22.39565028 1 27 C-4.7924724 26.36809392 -10.32598399 25.3298475 -16 24 C-16.66 21.03 -17.32 18.06 -18 15 C-14.52674819 13.8422494 -11.63932552 13.93133348 -8 14 C-8.66 10.37 -9.32 6.74 -10 3 C-6.535 2.505 -6.535 2.505 -3 2 C-2.01 3.485 -2.01 3.485 -1 5 C-0.67 3.35 -0.34 1.7 0 0 Z " fill="#ECF9F7" transform="translate(37,14)"/>
<path d="M0 0 C0.66 0 1.32 0 2 0 C2.33 0.66 2.66 1.32 3 2 C3.99 2 4.98 2 6 2 C6.33 1.34 6.66 0.68 7 0 C7.66 0 8.32 0 9 0 C9 2.31 9 4.62 9 7 C5.04 7 1.08 7 -3 7 C-2.67 5.35 -2.34 3.7 -2 2 C-1.34 2 -0.68 2 0 2 C0 1.34 0 0.68 0 0 Z " fill="#92E3DE" transform="translate(16,43)"/>
<path d="M0 0 C10 0 10 0 13 1 C13 2.32 13 3.64 13 5 C10.03 5 7.06 5 4 5 C3.67 4.01 3.34 3.02 3 2 C2.34 2 1.68 2 1 2 C0.67 2.99 0.34 3.98 0 5 C0 3.35 0 1.7 0 0 Z " fill="#8BE1DB" transform="translate(38,45)"/>
<path d="M0 0 C0.66 0 1.32 0 2 0 C2.33 0.66 2.66 1.32 3 2 C3.99 2.33 4.98 2.66 6 3 C5.67 4.32 5.34 5.64 5 7 C3.35 7 1.7 7 0 7 C0 4.69 0 2.38 0 0 Z " fill="#83E0D9" transform="translate(26,43)"/>
<path d="M0 0 C2.31 0 4.62 0 7 0 C7 0.66 7 1.32 7 2 C6.34 2 5.68 2 5 2 C5 2.66 5 3.32 5 4 C5.66 4.33 6.32 4.66 7 5 C5.68 4.67 4.36 4.34 3 4 C3 3.34 3 2.68 3 2 C2.34 2 1.68 2 1 2 C0.67 2.99 0.34 3.98 0 5 C0 3.35 0 1.7 0 0 Z " fill="#A3E6E2" transform="translate(38,45)"/>
<path d="M0 0 C0.99 0.33 1.98 0.66 3 1 C3 2.32 3 3.64 3 5 C1.68 5 0.36 5 -1 5 C-0.67 3.35 -0.34 1.7 0 0 Z " fill="#ABE8E3" transform="translate(34,45)"/>
<path d="M0 0 C-0.639375 0.226875 -1.27875 0.45375 -1.9375 0.6875 C-4.27193661 1.85250896 -4.27193661 1.85250896 -4.75 4.625 C-4.8325 5.40875 -4.915 6.1925 -5 7 C-6.4606285 4.35261084 -7 3.10551666 -7 0 C-3.86650268 -1.04449911 -3.01031744 -0.93423645 0 0 Z " fill="#BBEDEA" transform="translate(26,29)"/>
</svg>
