<?xml version="1.0" encoding="UTF-8"?>
<svg version="1.1" xmlns="http://www.w3.org/2000/svg" width="64" height="64">
<path d="M0 0 C21.12 0 42.24 0 64 0 C64 21.12 64 42.24 64 64 C42.88 64 21.76 64 0 64 C0 42.88 0 21.76 0 0 Z " fill="#F2DB11" transform="translate(0,0)"/>
<path d="M0 0 C21.12 0 42.24 0 64 0 C64 21.12 64 42.24 64 64 C42.88 64 21.76 64 0 64 C0 61.36 0 58.72 0 56 C0.639375 56.804375 1.27875 57.60875 1.9375 58.4375 C3.40603502 60.2750504 3.40603502 60.2750504 5 62 C6.60502676 62.109029 8.21480601 62.14905562 9.82348633 62.16113281 C10.85157913 62.17074036 11.87967194 62.1803479 12.93891907 62.19024658 C14.05864609 62.19449646 15.17837311 62.19874634 16.33203125 62.203125 C18.04697029 62.21167511 18.04697029 62.21167511 19.79655457 62.22039795 C22.2218635 62.2298658 24.6471854 62.23638898 27.07250977 62.24023438 C30.78619854 62.24993132 34.49933212 62.28093512 38.21289062 62.3125 C40.56510087 62.3190305 42.91731508 62.32428078 45.26953125 62.328125 C46.38318558 62.3404718 47.4968399 62.3528186 48.64424133 62.36553955 C49.68179062 62.36253845 50.7193399 62.35953735 51.78833008 62.35644531 C52.70020584 62.36009094 53.6120816 62.36373657 54.55158997 62.36749268 C57.50733862 61.92385131 58.85535954 61.05628929 61 59 C61.95821409 56.12535773 62.14754578 54.23201594 62.19287109 51.24072266 C62.20893402 50.27607086 62.22499695 49.31141907 62.24154663 48.3175354 C62.28605781 43.91612521 62.32704293 39.51486378 62.35009766 35.11328125 C62.36667438 32.79123932 62.39398665 30.46924876 62.43212891 28.14746094 C62.48684953 24.79855905 62.50876294 21.45085101 62.5234375 18.1015625 C62.54610687 17.0649649 62.56877625 16.02836731 62.59213257 14.96035767 C62.57907891 10.51321118 62.43083417 7.74700292 60.18188477 3.84765625 C55.38639763 1.06301368 51.0222939 1.28437514 45.56640625 1.3359375 C43.90036598 1.32876205 43.90036598 1.32876205 42.20066833 1.32144165 C39.85471173 1.31804331 37.50870773 1.32724093 35.1628418 1.34814453 C31.57818544 1.374883 27.99666778 1.34840464 24.41210938 1.31640625 C22.13020144 1.31971085 19.84829545 1.32611812 17.56640625 1.3359375 C15.96304161 1.32075577 15.96304161 1.32075577 14.32728577 1.30526733 C7.80176968 1.39067246 7.80176968 1.39067246 2.27709961 4.54150391 C1.1499353 5.75845947 1.1499353 5.75845947 0 7 C0 4.69 0 2.38 0 0 Z " fill="#FDFBE6" transform="translate(0,0)"/>
<path d="M0 0 C5.84320557 5.69337979 5.84320557 5.69337979 6.375 10.125 C5.89151068 15.12105628 4.23623829 18.20873404 1 22 C-2.88717586 24.76421395 -6.36056916 25.55335288 -11.046875 25.34765625 C-15.81258535 24.49935981 -18.47951502 21.65745471 -21.375 18 C-23 15 -23 15 -23 11 C-21.35 10.34 -19.7 9.68 -18 9 C-17.36523438 12.02734375 -17.36523438 12.02734375 -16.73046875 15.0546875 C-16.07691162 17.37046549 -16.07691162 17.37046549 -13 19 C-8.77014599 19.66992163 -5.1673123 19.68330476 -1.4375 17.5 C0.56249889 14.02174106 0.53657947 10.87103759 0 7 C-0.88214887 4.11785113 -0.88214887 4.11785113 -2 2 C-1.34 1.34 -0.68 0.68 0 0 Z " fill="#181602" transform="translate(40,16)"/>
<path d="M0 0 C0.639375 0.804375 1.27875 1.60875 1.9375 2.4375 C3.40603502 4.2750504 3.40603502 4.2750504 5 6 C6.56448383 6.12263388 8.13432772 6.17779522 9.70336914 6.20532227 C11.20481224 6.2352401 11.20481224 6.2352401 12.73658752 6.26576233 C14.36937904 6.29083107 14.36937904 6.29083107 16.03515625 6.31640625 C17.14354355 6.33718735 18.25193085 6.35796844 19.39390564 6.37937927 C22.95003808 6.44499623 26.50624703 6.50381596 30.0625 6.5625 C32.46680493 6.60567368 34.87110199 6.64928758 37.27539062 6.69335938 C43.18351185 6.80068992 49.09170991 6.90243331 55 7 C55 7.33 55 7.66 55 8 C36.85 8 18.7 8 0 8 C0 5.36 0 2.72 0 0 Z " fill="#F9EC81" transform="translate(0,56)"/>
<path d="M0 0 C0.7425 0.185625 1.485 0.37125 2.25 0.5625 C4.94990963 0.99203108 6.44631077 0.85122974 9 0 C9.33 1.65 9.66 3.3 10 5 C6.01080675 6.1004671 2.98919325 6.1004671 -1 5 C-0.67 3.35 -0.34 1.7 0 0 Z " fill="#625A08" transform="translate(27,44)"/>
<path d="M0 0 C2 2 2 2 2.125 5.125 C2.08375 6.07375 2.0425 7.0225 2 8 C-0.97 8 -3.94 8 -7 8 C-6.21625 7.4225 -5.4325 6.845 -4.625 6.25 C-2.19952756 4.17102363 -1.14305583 2.90959667 0 0 Z " fill="#FDFCEC" transform="translate(62,56)"/>
<path d="M0 0 C1.65 0 3.3 0 5 0 C4.67 1.65 4.34 3.3 4 5 C2.02 5 0.04 5 -2 5 C-1.34 3.35 -0.68 1.7 0 0 Z " fill="#232003" transform="translate(30,12)"/>
<path d="M0 0 C2.97 0 5.94 0 9 0 C8.01 0.66 7.02 1.32 6 2 C3.96864317 3.63101643 1.99068127 5.31898026 0 7 C0 4.69 0 2.38 0 0 Z " fill="#FEFDF4" transform="translate(0,0)"/>
<path d="M0 0 C2.475 0.495 2.475 0.495 5 1 C5 2.65 5 4.3 5 6 C3.35 6 1.7 6 0 6 C0 4.02 0 2.04 0 0 Z " fill="#645B08" transform="translate(38,44)"/>
<path d="M0 0 C0.598125 0.763125 1.19625 1.52625 1.8125 2.3125 C3.46959332 4.3483575 5.10297674 6.1978279 7 8 C4.69 8 2.38 8 0 8 C0 5.36 0 2.72 0 0 Z " fill="#FDFCED" transform="translate(0,56)"/>
<path d="M0 0 C1.98 0 3.96 0 6 0 C6.33 0.99 6.66 1.98 7 3 C5.35 3.66 3.7 4.32 2 5 C1.01 4.01 0.02 3.02 -1 2 C-0.67 1.34 -0.34 0.68 0 0 Z " fill="#E0CD10" transform="translate(29,41)"/>
<path d="M0 0 C2.475 0.495 2.475 0.495 5 1 C5 2.65 5 4.3 5 6 C4.34 6 3.68 6 3 6 C3 4.68 3 3.36 3 2 C2.34 2 1.68 2 1 2 C0.67 2.99 0.34 3.98 0 5 C0 3.35 0 1.7 0 0 Z " fill="#544D07" transform="translate(20,44)"/>
</svg>
