<?xml version="1.0" encoding="UTF-8"?>
<svg version="1.1" xmlns="http://www.w3.org/2000/svg" width="64" height="64">
<path d="M0 0 C21.12 0 42.24 0 64 0 C64 21.12 64 42.24 64 64 C42.88 64 21.76 64 0 64 C0 42.88 0 21.76 0 0 Z " fill="#FE5C04" transform="translate(0,0)"/>
<path d="M0 0 C0.99 0 1.98 0 3 0 C3.33 1.32 3.66 2.64 4 4 C4.78375 3.79375 5.5675 3.5875 6.375 3.375 C7.674375 3.189375 7.674375 3.189375 9 3 C11 5 11 5 11.125 7.625 C11.08375 8.40875 11.0425 9.1925 11 10 C4.62641289 10.96205088 -1.55929529 11.10655578 -8 11 C-9.1171875 7.28125 -9.1171875 7.28125 -8.0625 4.75 C-7.5365625 3.88375 -7.5365625 3.88375 -7 3 C-4.03 3.495 -4.03 3.495 -1 4 C-0.67 2.68 -0.34 1.36 0 0 Z " fill="#FCB794" transform="translate(22,25)"/>
<path d="M0 0 C0.66 0 1.32 0 2 0 C2 1.32 2 2.64 2 4 C2.804375 3.979375 3.60875 3.95875 4.4375 3.9375 C7 4 7 4 8 5 C8.04063832 6.66617115 8.042721 8.33388095 8 10 C4.71303767 10.79953138 3.28976808 11.09658936 0 10 C0 6.7 0 3.4 0 0 Z " fill="#FCDBC8" transform="translate(34,25)"/>
<path d="M0 0 C4.875 0.875 4.875 0.875 6 2 C6.125 4.5 6.125 4.5 6 7 C5 8 5 8 1.9375 8.0625 C0.968125 8.041875 -0.00125 8.02125 -1 8 C-1.93065133 5.39417629 -2.14917407 4.35801776 -1.0625 1.75 C-0.711875 1.1725 -0.36125 0.595 0 0 Z " fill="#FCC0A1" transform="translate(45,28)"/>
<path d="M0 0 C4.875 0.875 4.875 0.875 6 2 C6.04063832 3.66617115 6.042721 5.33388095 6 7 C3.69 7.33 1.38 7.66 -1 8 C-1.93065133 5.39417629 -2.14917407 4.35801776 -1.0625 1.75 C-0.711875 1.1725 -0.36125 0.595 0 0 Z " fill="#FCDAC7" transform="translate(27,28)"/>
<path d="M0 0 C0.99 0 1.98 0 3 0 C3 0.99 3 1.98 3 3 C3.66 3.33 4.32 3.66 5 4 C4.34 4 3.68 4 3 4 C3.33 5.98 3.66 7.96 4 10 C2.0625 9.3125 2.0625 9.3125 0 8 C-1.09809194 4.70572419 -1.11196276 3.33588828 0 0 Z " fill="#FCE8DD" transform="translate(8,26)"/>
<path d="M0 0 C0.66 0 1.32 0 2 0 C2 0.99 2 1.98 2 3 C2.66 3.33 3.32 3.66 4 4 C3.34 4 2.68 4 2 4 C2.66 5.98 3.32 7.96 4 10 C2.68 9.67 1.36 9.34 0 9 C0 7.35 0 5.7 0 4 C-0.66 3.67 -1.32 3.34 -2 3 C-1.34 3 -0.68 3 0 3 C0 2.01 0 1.02 0 0 Z " fill="#FCF2EC" transform="translate(53,26)"/>
<path d="M0 0 C0.66 0 1.32 0 2 0 C2 1.65 2 3.3 2 5 C0.02 5 -1.96 5 -4 5 C-4.33 3.68 -4.66 2.36 -5 1 C-4.01 1 -3.02 1 -2 1 C-2 1.66 -2 2.32 -2 3 C-1.34 3 -0.68 3 0 3 C0 2.01 0 1.02 0 0 Z " fill="#FCE2D3" transform="translate(48,31)"/>
<path d="M0 0 C4.70588235 0.70588235 4.70588235 0.70588235 6 2 C6.04063832 3.66617115 6.042721 5.33388095 6 7 C5.01 7 4.02 7 3 7 C3 5.35 3 3.7 3 2 C1.68 1.67 0.36 1.34 -1 1 C-0.67 0.67 -0.34 0.34 0 0 Z " fill="#FCE1D2" transform="translate(15,28)"/>
<path d="M0 0 C1.32 0 2.64 0 4 0 C4 1.32 4 2.64 4 4 C4.66 4.33 5.32 4.66 6 5 C4.02 5 2.04 5 0 5 C-0.5625 3.0625 -0.5625 3.0625 -1 1 C-0.67 0.67 -0.34 0.34 0 0 Z " fill="#FCCCB3" transform="translate(14,31)"/>
<path d="M0 0 C-0.639375 0.2475 -1.27875 0.495 -1.9375 0.75 C-4.18741541 1.81562433 -4.18741541 1.81562433 -4.75 4.125 C-4.8325 4.74375 -4.915 5.3625 -5 6 C-5.66 5.34 -6.32 4.68 -7 4 C-7 2.68 -7 1.36 -7 0 C-4.3333581 -1.33332095 -2.83319697 -0.67102033 0 0 Z " fill="#FC7B3A" transform="translate(18,30)"/>
</svg>
