<?xml version="1.0" encoding="UTF-8"?>
<svg version="1.1" xmlns="http://www.w3.org/2000/svg" width="64" height="64">
<path d="M0 0 C21.12 0 42.24 0 64 0 C64 21.12 64 42.24 64 64 C42.88 64 21.76 64 0 64 C0 42.88 0 21.76 0 0 Z " fill="#020301" transform="translate(0,0)"/>
<path d="M0 0 C2.95529457 0.36040178 3.75137927 1.02476855 5.5625 3.3125 C5.8925 2.3225 6.2225 1.3325 6.5625 0.3125 C8.5425 0.3125 10.5225 0.3125 12.5625 0.3125 C12.5625 0.9725 12.5625 1.6325 12.5625 2.3125 C11.5725 2.8075 11.5725 2.8075 10.5625 3.3125 C10.09726937 5.20783342 10.09726937 5.20783342 9.9375 7.375 C9.81375 8.674375 9.69 9.97375 9.5625 11.3125 C8.94375 11.126875 8.325 10.94125 7.6875 10.75 C5.52089822 10.07563824 5.52089822 10.07563824 3.5625 11.3125 C-1.67048969 11.75786082 -1.67048969 11.75786082 -4.375 10.1875 C-5.4375 8.3125 -5.4375 8.3125 -5.25 5.25 C-4.27786515 1.7353586 -3.70860904 0.4754627 0 0 Z " fill="#B9B9B9" transform="translate(41.4375,18.6875)"/>
<path d="M0 0 C0.66 0 1.32 0 2 0 C2.33 1.32 2.66 2.64 3 4 C3.763125 3.938125 4.52625 3.87625 5.3125 3.8125 C8 4 8 4 9.8125 5.125 C11.52849028 7.83445834 11.333728 9.86295684 11 13 C9 15 9 15 6.8359375 15.1953125 C4.55729167 15.13020833 2.27864583 15.06510417 0 15 C0 10.05 0 5.1 0 0 Z " fill="#E1E1E1" transform="translate(24,15)"/>
<path d="M0 0 C0 3.3 0 6.6 0 10 C-7.28070175 11.45614035 -7.28070175 11.45614035 -10.5625 9.375 C-12 7 -12 7 -11.9375 4.4375 C-9.418441 -2.11205339 -6.27387009 -1.13135362 0 0 Z " fill="#54A207" transform="translate(33,38)"/>
<path d="M0 0 C0.66 0 1.32 0 2 0 C2.33 3.63 2.66 7.26 3 11 C4.65 11.33 6.3 11.66 8 12 C8.33 8.04 8.66 4.08 9 0 C9.99 0 10.98 0 12 0 C12 4.95 12 9.9 12 15 C10.576875 15.061875 9.15375 15.12375 7.6875 15.1875 C6.48673828 15.23970703 6.48673828 15.23970703 5.26171875 15.29296875 C3 15 3 15 1.21875 13.875 C-0.54851611 11.15612907 -0.29091256 9.01828928 -0.1875 5.8125 C-0.16042969 4.72582031 -0.13335937 3.63914062 -0.10546875 2.51953125 C-0.07066406 1.68808594 -0.03585937 0.85664063 0 0 Z " fill="#BDBDBD" transform="translate(10,15)"/>
<path d="M0 0 C3.3 0 6.6 0 10 0 C10 0.66 10 1.32 10 2 C7.69 2 5.38 2 3 2 C3 3.32 3 4.64 3 6 C5.31 6 7.62 6 10 6 C10 6.66 10 7.32 10 8 C7.69 8 5.38 8 3 8 C3 9.32 3 10.64 3 12 C5.31 12 7.62 12 10 12 C10 12.66 10 13.32 10 14 C6.7 14 3.4 14 0 14 C0 9.38 0 4.76 0 0 Z " fill="#5BB008" transform="translate(10,34)"/>
<path d="M0 0 C2.33944736 0.28730055 4.6739143 0.61936779 7 1 C7.33 1.99 7.66 2.98 8 4 C5.69 3.67 3.38 3.34 1 3 C1 3.66 1 4.32 1 5 C3.31 5.33 5.62 5.66 8 6 C7.125 10.875 7.125 10.875 6 12 C4.00041636 12.04080783 1.99954746 12.04254356 0 12 C-0.66 10.68 -1.32 9.36 -2 8 C0.97 8.495 0.97 8.495 4 9 C4.33 8.34 4.66 7.68 5 7 C2.69 6.67 0.38 6.34 -2 6 C-1.125 1.125 -1.125 1.125 0 0 Z " fill="#529F07" transform="translate(46,37)"/>
<path d="M0 0 C1.98 0 3.96 0 6 0 C6 0.66 6 1.32 6 2 C5.01 2.495 5.01 2.495 4 3 C3.53476937 4.89533342 3.53476937 4.89533342 3.375 7.0625 C3.25125 8.361875 3.1275 9.66125 3 11 C1.35 10.67 -0.3 10.34 -2 10 C-2 9.34 -2 8.68 -2 8 C-3.98 8.33 -5.96 8.66 -8 9 C-8.33 8.01 -8.66 7.02 -9 6 C-6.36 6 -3.72 6 -1 6 C-0.67 4.02 -0.34 2.04 0 0 Z " fill="#3B3B3B" transform="translate(48,19)"/>
<path d="M0 0 C0.99 0 1.98 0 3 0 C3 0.99 3 1.98 3 3 C3.99 3 4.98 3 6 3 C6 3.99 6 4.98 6 6 C5.01 6 4.02 6 3 6 C3 7.98 3 9.96 3 12 C3.99 12 4.98 12 6 12 C6 12.66 6 13.32 6 14 C4.02 14 2.04 14 0 14 C0 11.36 0 8.72 0 6 C-0.66 6 -1.32 6 -2 6 C-2 5.34 -2 4.68 -2 4 C-1.34 4 -0.68 4 0 4 C0 2.68 0 1.36 0 0 Z " fill="#519D07" transform="translate(37,34)"/>
<path d="M0 0 C1.67542976 0.28604898 3.34385343 0.61781233 5 1 C5.38218767 2.65614657 5.71395102 4.32457024 6 6 C5 7 5 7 2.5 7.125 C0 7 0 7 -1 6 C-1.125 3.5 -1.125 3.5 -1 1 C-0.67 0.67 -0.34 0.34 0 0 Z " fill="#0E0E0E" transform="translate(27,21)"/>
<path d="M0 0 C1.2065625 0.0309375 1.2065625 0.0309375 2.4375 0.0625 C2.81968767 1.71864657 3.15145102 3.38707024 3.4375 5.0625 C2.4375 6.0625 2.4375 6.0625 -0.125 6.125 C-1.3315625 6.0940625 -1.3315625 6.0940625 -2.5625 6.0625 C-2.94468767 4.40635343 -3.27645102 2.73792976 -3.5625 1.0625 C-2.5625 0.0625 -2.5625 0.0625 0 0 Z " fill="#0A1500" transform="translate(27.5625,39.9375)"/>
<path d="M0 0 C2.31 0 4.62 0 7 0 C7 3.3 7 6.6 7 10 C5.02 10 3.04 10 1 10 C1.515625 9.608125 2.03125 9.21625 2.5625 8.8125 C4.28448823 7.05008282 4.28448823 7.05008282 3.875 4.4375 C3.15610832 1.6738389 3.15610832 1.6738389 0 0 Z " fill="#5DB408" transform="translate(26,38)"/>
<path d="M0 0 C2.64 0 5.28 0 8 0 C7.67 1.32 7.34 2.64 7 4 C4.69 4 2.38 4 0 4 C0 2.68 0 1.36 0 0 Z " fill="#080F00" transform="translate(13,42)"/>
<path d="M0 0 C3.69900008 0.88776002 7.34550461 1.94581864 11 3 C10.67 3.99 10.34 4.98 10 6 C6.7 5.34 3.4 4.68 0 4 C0 2.68 0 1.36 0 0 Z " fill="#081000" transform="translate(40,41)"/>
<path d="M0 0 C0 0.66 0 1.32 0 2 C-0.99 2.495 -0.99 2.495 -2 3 C-2.46523063 4.89533342 -2.46523063 4.89533342 -2.625 7.0625 C-2.74875 8.361875 -2.8725 9.66125 -3 11 C-3.66 11 -4.32 11 -5 11 C-5 7.7 -5 4.4 -5 1 C-2 0 -2 0 0 0 Z " fill="#DFDFDF" transform="translate(54,19)"/>
<path d="M0 0 C0.33 0 0.66 0 1 0 C1 4.62 1 9.24 1 14 C-1.31 14 -3.62 14 -6 14 C-4.7934375 13.319375 -4.7934375 13.319375 -3.5625 12.625 C0.14001998 8.83217466 -0.10763497 5.12733866 0 0 Z " fill="#F9F9F9" transform="translate(20,16)"/>
<path d="M0 0 C2.31 0.33 4.62 0.66 7 1 C7.33 1.99 7.66 2.98 8 4 C5.69 3.67 3.38 3.34 1 3 C0.67 2.01 0.34 1.02 0 0 Z " fill="#4A9006" transform="translate(46,37)"/>
<path d="M0 0 C0.598125 0.226875 1.19625 0.45375 1.8125 0.6875 C1.8125 1.3475 1.8125 2.0075 1.8125 2.6875 C0.86375 2.955625 -0.085 3.22375 -1.0625 3.5 C-4.44017273 4.43736588 -4.44017273 4.43736588 -6.1875 7.6875 C-5.82037028 4.97074005 -5.46005401 3.07686287 -3.875 0.8125 C-2.1875 -0.3125 -2.1875 -0.3125 0 0 Z " fill="#498E06" transform="translate(27.1875,37.3125)"/>
</svg>
