<?xml version="1.0" encoding="UTF-8"?>
<svg version="1.1" xmlns="http://www.w3.org/2000/svg" width="64" height="64">
<path d="M0 0 C21.12 0 42.24 0 64 0 C64 21.12 64 42.24 64 64 C42.88 64 21.76 64 0 64 C0 42.88 0 21.76 0 0 Z " fill="#34D852" transform="translate(0,0)"/>
<path d="M0 0 C6.31477019 2.76497586 10.43293676 7.43239092 13.10546875 13.70703125 C14.24136177 21.0272307 13.30206318 26.47585453 9.05859375 32.609375 C5.86727995 36.56265979 2.43443164 38.73636192 -2.33203125 40.33203125 C-5.26953125 40.5625 -5.26953125 40.5625 -8.33203125 40.51953125 C-9.84796875 40.50986328 -9.84796875 40.50986328 -11.39453125 40.5 C-14.33203125 40.33203125 -14.33203125 40.33203125 -16.90625 39.79296875 C-19.50754382 39.29868103 -21.52957447 39.4182684 -24.14453125 39.76953125 C-25.32982422 39.92228516 -25.32982422 39.92228516 -26.5390625 40.078125 C-27.13074219 40.16191406 -27.72242188 40.24570312 -28.33203125 40.33203125 C-28.24824219 39.48898438 -28.16445313 38.6459375 -28.078125 37.77734375 C-27.97628906 36.68164062 -27.87445313 35.5859375 -27.76953125 34.45703125 C-27.66511719 33.36648437 -27.56070312 32.2759375 -27.453125 31.15234375 C-27.10563721 28.38051102 -27.10563721 28.38051102 -28.33203125 26.33203125 C-29.02453191 19.34766746 -29.39249655 12.83878168 -24.99609375 7.0546875 C-17.77116066 -0.42464465 -10.23756255 -2.93236716 0 0 Z " fill="#38D856" transform="translate(40.33203125,11.66796875)"/>
<path d="M0 0 C6.31477019 2.76497586 10.43293676 7.43239092 13.10546875 13.70703125 C14.24136177 21.0272307 13.30206318 26.47585453 9.05859375 32.609375 C5.86727995 36.56265979 2.43443164 38.73636192 -2.33203125 40.33203125 C-5.26953125 40.5625 -5.26953125 40.5625 -8.33203125 40.51953125 C-9.84796875 40.50986328 -9.84796875 40.50986328 -11.39453125 40.5 C-14.33203125 40.33203125 -14.33203125 40.33203125 -16.90625 39.79296875 C-19.50754382 39.29868103 -21.52957447 39.4182684 -24.14453125 39.76953125 C-25.32982422 39.92228516 -25.32982422 39.92228516 -26.5390625 40.078125 C-27.13074219 40.16191406 -27.72242188 40.24570312 -28.33203125 40.33203125 C-28.24824219 39.48898438 -28.16445313 38.6459375 -28.078125 37.77734375 C-27.97628906 36.68164062 -27.87445313 35.5859375 -27.76953125 34.45703125 C-27.66511719 33.36648437 -27.56070312 32.2759375 -27.453125 31.15234375 C-27.10563721 28.38051102 -27.10563721 28.38051102 -28.33203125 26.33203125 C-29.02453191 19.34766746 -29.39249655 12.83878168 -24.99609375 7.0546875 C-17.77116066 -0.42464465 -10.23756255 -2.93236716 0 0 Z M-23.33203125 11.08203125 C-25.75136229 15.38306421 -26.19616997 19.49285443 -25.33203125 24.33203125 C-24.99558594 25.00234375 -24.65914062 25.67265625 -24.3125 26.36328125 C-22.84118761 29.31762964 -23.20735809 32.09052921 -23.33203125 35.33203125 C-10.4007439 37.9214373 -10.4007439 37.9214373 1.98046875 34.64453125 C6.9221672 30.39237212 9.43943625 26.07442122 9.98046875 19.58203125 C9.91028456 14.8095063 8.42562768 12.20766002 5.66796875 8.33203125 C1.3604072 4.24537029 -2.26803462 2.56888332 -8.14453125 1.89453125 C-14.75824673 2.10666929 -19.59472705 5.81822252 -23.33203125 11.08203125 Z " fill="#ECF9EE" transform="translate(40.33203125,11.66796875)"/>
<path d="M0 0 C2.64 0 5.28 0 8 0 C7.36234459 0.56260025 7.36234459 0.56260025 6.71180725 1.13656616 C2.24464821 5.58546489 1.30293862 8.90149453 1.24327087 15.13565063 C1.26482742 16.15565155 1.28638397 17.17565247 1.30859375 18.2265625 C1.30996841 19.2924057 1.31134308 20.3582489 1.3127594 21.45639038 C1.321791 23.70052158 1.34534291 25.94463596 1.38256836 28.18847656 C1.43743799 31.62112059 1.44409629 35.0513375 1.44335938 38.484375 C1.45810379 40.66929179 1.47558829 42.85419218 1.49609375 45.0390625 C1.49943222 46.06311188 1.50277069 47.08716125 1.50621033 48.14224243 C1.60239784 55.07840903 1.60239784 55.07840903 5 61 C7.44401307 62.22200654 9.08074527 62.15309158 11.81347656 62.19287109 C12.8150177 62.20893402 13.81655884 62.22499695 14.84844971 62.24154663 C19.43590656 62.28598472 24.02321805 62.3270693 28.61083984 62.35009766 C31.02988306 62.36665088 33.4488775 62.3939322 35.86767578 62.43212891 C39.35475045 62.48691967 42.84067771 62.50877697 46.328125 62.5234375 C47.94560638 62.55744156 47.94560638 62.55744156 49.59576416 62.59213257 C56.16331943 62.60535095 56.16331943 62.60535095 61.72949219 59.46728516 C62.47875977 58.65308105 63.22802734 57.83887695 64 57 C64 59.31 64 61.62 64 64 C42.88 64 21.76 64 0 64 C0 42.88 0 21.76 0 0 Z " fill="#60E078" transform="translate(0,0)"/>
<path d="M0 0 C2.125 0.375 2.125 0.375 4 1 C4.62457273 4.43515002 5 7.49064814 5 11 C6.99051026 13.47662048 6.99051026 13.47662048 10 15 C13.63939932 14.68269476 13.63939932 14.68269476 17 14 C17.66 14.66 18.32 15.32 19 16 C18.46428571 19.53571429 18.46428571 19.53571429 17 21 C11.96317176 21.73709682 8.9544682 20.31182574 4.90234375 17.55078125 C0.53814852 13.99311081 -1.78972885 10.83236292 -2.4375 5.1875 C-2 2 -2 2 0 0 Z " fill="#EEF9F0" transform="translate(24,21)"/>
<path d="M0 0 C0.33 0 0.66 0 1 0 C1 2.31 1 4.62 1 7 C-17.15 7 -35.3 7 -54 7 C-54 6.67 -54 6.34 -54 6 C-53.39722733 5.99857498 -52.79445465 5.99714996 -52.17341614 5.99568176 C-45.89501543 5.97598288 -39.61758672 5.92170521 -33.33959961 5.84741211 C-30.99722265 5.82422668 -28.65474136 5.80983514 -26.31225586 5.80444336 C-22.94318584 5.79515824 -19.57575809 5.7541743 -16.20703125 5.70703125 C-14.63801811 5.71293022 -14.63801811 5.71293022 -13.03730774 5.71894836 C-6.84466139 5.71126898 -6.84466139 5.71126898 -1.86206055 2.45581055 C-0.94034058 1.24018433 -0.94034058 1.24018433 0 0 Z " fill="#58DE72" transform="translate(63,57)"/>
<path d="M0 0 C4.455 0.99 4.455 0.99 9 2 C8.67 3.32 8.34 4.64 8 6 C3.545 6.495 3.545 6.495 -1 7 C-0.67 4.69 -0.34 2.38 0 0 Z " fill="#E1F7E5" transform="translate(13,45)"/>
<path d="M0 0 C2 3 2 3 3.375 5.5 C5.01605808 8.02470474 6.50310264 9.36410173 9 11 C6.03 11 3.06 11 0 11 C0 7.37 0 3.74 0 0 Z " fill="#F2FCF4" transform="translate(0,53)"/>
<path d="M0 0 C2.64 0 5.28 0 8 0 C7.04270084 1.12588014 6.08412105 2.2506715 5.125 3.375 C4.59132813 4.00148438 4.05765625 4.62796875 3.5078125 5.2734375 C2.38567993 6.55836651 1.20628025 7.79371975 0 9 C0 6.03 0 3.06 0 0 Z " fill="#F4FDF6" transform="translate(0,0)"/>
<path d="M0 0 C0.33 0 0.66 0 1 0 C1 2.31 1 4.62 1 7 C-1.97 7 -4.94 7 -8 7 C-7.13375 6.38125 -7.13375 6.38125 -6.25 5.75 C-3.92893843 4.01938043 -3.92893843 4.01938043 -1.8125 1.8125 C-1.214375 1.214375 -0.61625 0.61625 0 0 Z " fill="#F0FCF2" transform="translate(63,57)"/>
<path d="M0 0 C2.31 0 4.62 0 7 0 C7 1.98 7 3.96 7 6 C5.83054208 5.19152271 4.66449539 4.37810888 3.5 3.5625 C2.8503125 3.11003906 2.200625 2.65757812 1.53125 2.19140625 C1.0259375 1.79824219 0.520625 1.40507812 0 1 C0 0.67 0 0.34 0 0 Z " fill="#F1FCF3" transform="translate(57,0)"/>
</svg>
