<?xml version="1.0" encoding="UTF-8"?>
<svg version="1.1" xmlns="http://www.w3.org/2000/svg" width="64" height="64">
<path d="M0 0 C21.12 0 42.24 0 64 0 C64 21.12 64 42.24 64 64 C42.88 64 21.76 64 0 64 C0 42.88 0 21.76 0 0 Z " fill="#E23845" transform="translate(0,0)"/>
<path d="M0 0 C10.66666667 0 10.66666667 0 15 1 C15.33 1.33 15.66 1.66 16 2 C16.33 1.34 16.66 0.68 17 0 C21.29 0 25.58 0 30 0 C30 2.97 30 5.94 30 9 C29.01 9 28.02 9 27 9 C26.67 7.35 26.34 5.7 26 4 C25.67 5.65 25.34 7.3 25 9 C24.01 9 23.02 9 22 9 C21.67 7.35 21.34 5.7 21 4 C20.67 5.65 20.34 7.3 20 9 C19.195625 8.814375 18.39125 8.62875 17.5625 8.4375 C16.2940625 8.2209375 16.2940625 8.2209375 15 8 C14.67 8.33 14.34 8.66 14 9 C12.33388095 9.042721 10.66617115 9.04063832 9 9 C8.34 9 7.68 9 7 9 C4.33333333 9 1.66666667 9 -1 9 C0.875 5.125 0.875 5.125 2 4 C1.34 3.67 0.68 3.34 0 3 C0 2.01 0 1.02 0 0 Z " fill="#F9DBDE" transform="translate(5,27)"/>
<path d="M0 0 C10.25 0 10.25 0 14 1 C13.34 2.98 12.68 4.96 12 7 C11.34 7 10.68 7 10 7 C9.67 6.01 9.34 5.02 9 4 C8.34 5.65 7.68 7.3 7 9 C4.36 9 1.72 9 -1 9 C0.875 5.125 0.875 5.125 2 4 C1.34 3.67 0.68 3.34 0 3 C0 2.01 0 1.02 0 0 Z " fill="#EB7B83" transform="translate(5,27)"/>
<path d="M0 0 C4.55555556 0.55555556 4.55555556 0.55555556 6 2 C6.1875 4.4375 6.1875 4.4375 6 7 C4 9 4 9 0.875 9.125 C-0.548125 9.063125 -0.548125 9.063125 -2 9 C-2.125 5.625 -2.125 5.625 -2 2 C-1.34 1.34 -0.68 0.68 0 0 Z " fill="#FCF4F5" transform="translate(54,27)"/>
<path d="M0 0 C1.66611905 -0.042721 3.33382885 -0.04063832 5 0 C6 1 6 1 6.09765625 2.84765625 C6.04882812 5.92382812 6.04882812 5.92382812 6 9 C5.01 8.67 4.02 8.34 3 8 C3.33 7.34 3.66 6.68 4 6 C3.01 6 2.02 6 1 6 C0.67 6.66 0.34 7.32 0 8 C0.66 8.33 1.32 8.66 2 9 C0.68 9 -0.64 9 -2 9 C-1.67 7.35 -1.34 5.7 -1 4 C0.65 4 2.3 4 4 4 C4 3.34 4 2.68 4 2 C2.35 2 0.7 2 -1 2 C-0.67 1.34 -0.34 0.68 0 0 Z " fill="#FCF3F4" transform="translate(38,27)"/>
<path d="M0 0 C2.31 0 4.62 0 7 0 C6 2 5 4 4 6 C4.66 6 5.32 6 6 6 C6 6.66 6 7.32 6 8 C3.69 8 1.38 8 -1 8 C0.875 4.125 0.875 4.125 2 3 C1.34 2.67 0.68 2.34 0 2 C0 1.34 0 0.68 0 0 Z " fill="#FDF8F8" transform="translate(5,28)"/>
<path d="M0 0 C0.99 0 1.98 0 3 0 C3.33 1.65 3.66 3.3 4 5 C3.34 5 2.68 5 2 5 C2.33 6.98 2.66 8.96 3 11 C1.68 11 0.36 11 -1 11 C-1.0270043 9.54176788 -1.04639787 8.08339325 -1.0625 6.625 C-1.07410156 5.81289063 -1.08570313 5.00078125 -1.09765625 4.1640625 C-1 2 -1 2 0 0 Z " fill="#FBEBED" transform="translate(47,25)"/>
<path d="M0 0 C1.65 0.33 3.3 0.66 5 1 C4.125 6.875 4.125 6.875 3 8 C1.33382885 8.04063832 -0.33388095 8.042721 -2 8 C-2.33 6.35 -2.66 4.7 -3 3 C-2.34 2.67 -1.68 2.34 -1 2 C-1 3.32 -1 4.64 -1 6 C-0.34 5.67 0.32 5.34 1 5 C1.65213292 2.97536745 1.65213292 2.97536745 2 1 C1.34 0.67 0.68 0.34 0 0 Z " fill="#FDF8F9" transform="translate(16,28)"/>
<path d="M0 0 C2.125 0.375 2.125 0.375 4 1 C3.34 2.98 2.68 4.96 2 7 C1.34 7 0.68 7 0 7 C-0.66 5.35 -1.32 3.7 -2 2 C-1.34 1.34 -0.68 0.68 0 0 Z " fill="#F3B1B6" transform="translate(54,27)"/>
<path d="M0 0 C0.66 0 1.32 0 2 0 C2 2.64 2 5.28 2 8 C1.01 8 0.02 8 -1 8 C-1.04241723 5.66705225 -1.04092937 3.33297433 -1 1 C-0.67 0.67 -0.34 0.34 0 0 Z " fill="#FCF3F3" transform="translate(28,28)"/>
<path d="M0 0 C2.125 0.375 2.125 0.375 4 1 C3.34 2.98 2.68 4.96 2 7 C1.34 7 0.68 7 0 7 C-0.66 5.35 -1.32 3.7 -2 2 C-1.34 1.34 -0.68 0.68 0 0 Z " fill="#F1A3A9" transform="translate(15,27)"/>
<path d="M0 0 C0.66 0.66 1.32 1.32 2 2 C1.34 4.31 0.68 6.62 0 9 C-0.66 8.34 -1.32 7.68 -2 7 C-2 5.68 -2 4.36 -2 3 C-1.34 3 -0.68 3 0 3 C0 2.01 0 1.02 0 0 Z " fill="#E7606A" transform="translate(51,27)"/>
</svg>
